<svg cache-id="7908eb69ddeb499ab65103fff60a060e" id="eKzgDa6fvL11" xmlns="http://www.w3.org/2000/svg" xmlns:xlink="http://www.w3.org/1999/xlink" viewBox="0 0 1440 1287" shape-rendering="geometricPrecision" text-rendering="geometricPrecision" style="background-color:#21064e"><defs><linearGradient id="eKzgDa6fvL15-fill" x1="1444" y1="931.5" x2="891" y2="931.5" spreadMethod="pad" gradientUnits="userSpaceOnUse" gradientTransform="translate(0 0)"><stop id="eKzgDa6fvL15-fill-0" offset="0%" stop-color="#21064e"/><stop id="eKzgDa6fvL15-fill-1" offset="6.66667%" stop-color="rgba(33,6,78,0.991353)"/><stop id="eKzgDa6fvL15-fill-2" offset="13.3333%" stop-color="rgba(33,6,78,0.96449)"/><stop id="eKzgDa6fvL15-fill-3" offset="20%" stop-color="rgba(33,6,78,0.91834)"/><stop id="eKzgDa6fvL15-fill-4" offset="26.6667%" stop-color="rgba(33,6,78,0.852589)"/><stop id="eKzgDa6fvL15-fill-5" offset="33.3333%" stop-color="rgba(33,6,78,0.768225)"/><stop id="eKzgDa6fvL15-fill-6" offset="40%" stop-color="rgba(33,6,78,0.668116)"/><stop id="eKzgDa6fvL15-fill-7" offset="46.6667%" stop-color="rgba(33,6,78,0.557309)"/><stop id="eKzgDa6fvL15-fill-8" offset="53.3333%" stop-color="rgba(33,6,78,0.442691)"/><stop id="eKzgDa6fvL15-fill-9" offset="60%" stop-color="rgba(33,6,78,0.331884)"/><stop id="eKzgDa6fvL15-fill-10" offset="66.6667%" stop-color="rgba(33,6,78,0.231775)"/><stop id="eKzgDa6fvL15-fill-11" offset="73.3333%" stop-color="rgba(33,6,78,0.147411)"/><stop id="eKzgDa6fvL15-fill-12" offset="80%" stop-color="rgba(33,6,78,0.0816599)"/><stop id="eKzgDa6fvL15-fill-13" offset="86.6667%" stop-color="rgba(33,6,78,0.03551)"/><stop id="eKzgDa6fvL15-fill-14" offset="93.3333%" stop-color="rgba(33,6,78,0.01)"/><stop id="eKzgDa6fvL15-fill-15" offset="100%" stop-color="rgba(33,6,78,0)"/></linearGradient><linearGradient id="eKzgDa6fvL128-fill" x1="3" y1="978.5" x2="952" y2="978.5" spreadMethod="pad" gradientUnits="userSpaceOnUse" gradientTransform="translate(0 0)"><stop id="eKzgDa6fvL128-fill-0" offset="0%" stop-color="#21064e"/><stop id="eKzgDa6fvL128-fill-1" offset="100%" stop-color="rgba(33,6,78,0)"/></linearGradient><linearGradient id="eKzgDa6fvL133-fill" x1="28" y1="6" x2="0" y2="6" spreadMethod="pad" gradientUnits="userSpaceOnUse" gradientTransform="translate(0 0)"><stop id="eKzgDa6fvL133-fill-0" offset="0%" stop-color="#9b6aff"/><stop id="eKzgDa6fvL133-fill-1" offset="6.66667%" stop-color="rgba(155,106,255,0.991353)"/><stop id="eKzgDa6fvL133-fill-2" offset="13.3333%" stop-color="rgba(155,106,255,0.96449)"/><stop id="eKzgDa6fvL133-fill-3" offset="20%" stop-color="rgba(155,106,255,0.91834)"/><stop id="eKzgDa6fvL133-fill-4" offset="26.6667%" stop-color="rgba(155,106,255,0.852589)"/><stop id="eKzgDa6fvL133-fill-5" offset="33.3333%" stop-color="rgba(155,106,255,0.768225)"/><stop id="eKzgDa6fvL133-fill-6" offset="40%" stop-color="rgba(155,106,255,0.668116)"/><stop id="eKzgDa6fvL133-fill-7" offset="46.6667%" stop-color="rgba(155,106,255,0.557309)"/><stop id="eKzgDa6fvL133-fill-8" offset="53.3333%" stop-color="rgba(155,106,255,0.442691)"/><stop id="eKzgDa6fvL133-fill-9" offset="60%" stop-color="rgba(155,106,255,0.331884)"/><stop id="eKzgDa6fvL133-fill-10" offset="66.6667%" stop-color="rgba(155,106,255,0.231775)"/><stop id="eKzgDa6fvL133-fill-11" offset="73.3333%" stop-color="rgba(155,106,255,0.147411)"/><stop id="eKzgDa6fvL133-fill-12" offset="80%" stop-color="rgba(155,106,255,0.0816599)"/><stop id="eKzgDa6fvL133-fill-13" offset="86.6667%" stop-color="rgba(155,106,255,0.03551)"/><stop id="eKzgDa6fvL133-fill-14" offset="93.3333%" stop-color="rgba(155,106,255,0.01)"/><stop id="eKzgDa6fvL133-fill-15" offset="100%" stop-color="rgba(155,106,255,0)"/></linearGradient><linearGradient id="eKzgDa6fvL137-stroke" x1="-501.506673" y1="923.299541" x2="-352.003334" y2="922.394778" spreadMethod="pad" gradientUnits="userSpaceOnUse" gradientTransform="translate(0 0)"><stop id="eKzgDa6fvL137-stroke-0" offset="0%" stop-color="rgba(155,106,255,0)"/><stop id="eKzgDa6fvL137-stroke-1" offset="100%" stop-color="#9b6aff"/></linearGradient><linearGradient id="eKzgDa6fvL140-fill" x1="1441" y1="1038" x2="576" y2="1038" spreadMethod="pad" gradientUnits="userSpaceOnUse" gradientTransform="translate(0 0)"><stop id="eKzgDa6fvL140-fill-0" offset="0%" stop-color="#21064e"/><stop id="eKzgDa6fvL140-fill-1" offset="100%" stop-color="rgba(33,6,78,0)"/></linearGradient><linearGradient id="eKzgDa6fvL142-fill" x1="576" y1="1228.5" x2="283" y2="1228.5" spreadMethod="pad" gradientUnits="userSpaceOnUse" gradientTransform="translate(0 0)"><stop id="eKzgDa6fvL142-fill-0" offset="0%" stop-color="#21064e"/><stop id="eKzgDa6fvL142-fill-1" offset="100%" stop-color="rgba(33,6,78,0)"/></linearGradient><linearGradient id="eKzgDa6fvL143-stroke" x1="768.671" y1="1171" x2="1028.09" y2="1286.98" spreadMethod="pad" gradientUnits="userSpaceOnUse" gradientTransform="translate(0 0)"><stop id="eKzgDa6fvL143-stroke-0" offset="0%" stop-color="#21064e"/><stop id="eKzgDa6fvL143-stroke-1" offset="100%" stop-color="rgba(33,6,78,0)"/></linearGradient><linearGradient id="eKzgDa6fvL144-fill" x1="63" y1="6" x2="0" y2="6" spreadMethod="pad" gradientUnits="userSpaceOnUse" gradientTransform="translate(0 0)"><stop id="eKzgDa6fvL144-fill-0" offset="0%" stop-color="#9b6aff"/><stop id="eKzgDa6fvL144-fill-1" offset="6.66667%" stop-color="rgba(155,106,255,0.991353)"/><stop id="eKzgDa6fvL144-fill-2" offset="13.3333%" stop-color="rgba(155,106,255,0.96449)"/><stop id="eKzgDa6fvL144-fill-3" offset="20%" stop-color="rgba(155,106,255,0.91834)"/><stop id="eKzgDa6fvL144-fill-4" offset="26.6667%" stop-color="rgba(155,106,255,0.852589)"/><stop id="eKzgDa6fvL144-fill-5" offset="33.3333%" stop-color="rgba(155,106,255,0.768225)"/><stop id="eKzgDa6fvL144-fill-6" offset="40%" stop-color="rgba(155,106,255,0.668116)"/><stop id="eKzgDa6fvL144-fill-7" offset="46.6667%" stop-color="rgba(155,106,255,0.557309)"/><stop id="eKzgDa6fvL144-fill-8" offset="53.3333%" stop-color="rgba(155,106,255,0.442691)"/><stop id="eKzgDa6fvL144-fill-9" offset="60%" stop-color="rgba(155,106,255,0.331884)"/><stop id="eKzgDa6fvL144-fill-10" offset="66.6667%" stop-color="rgba(155,106,255,0.231775)"/><stop id="eKzgDa6fvL144-fill-11" offset="73.3333%" stop-color="rgba(155,106,255,0.147411)"/><stop id="eKzgDa6fvL144-fill-12" offset="80%" stop-color="rgba(155,106,255,0.0816599)"/><stop id="eKzgDa6fvL144-fill-13" offset="86.6667%" stop-color="rgba(155,106,255,0.03551)"/><stop id="eKzgDa6fvL144-fill-14" offset="93.3333%" stop-color="rgba(155,106,255,0.01)"/><stop id="eKzgDa6fvL144-fill-15" offset="100%" stop-color="rgba(155,106,255,0)"/></linearGradient><linearGradient id="eKzgDa6fvL146-fill" x1="63" y1="6" x2="0" y2="6" spreadMethod="pad" gradientUnits="userSpaceOnUse" gradientTransform="translate(0 0)"><stop id="eKzgDa6fvL146-fill-0" offset="0%" stop-color="#9b6aff"/><stop id="eKzgDa6fvL146-fill-1" offset="6.66667%" stop-color="rgba(155,106,255,0.991353)"/><stop id="eKzgDa6fvL146-fill-2" offset="13.3333%" stop-color="rgba(155,106,255,0.96449)"/><stop id="eKzgDa6fvL146-fill-3" offset="20%" stop-color="rgba(155,106,255,0.91834)"/><stop id="eKzgDa6fvL146-fill-4" offset="26.6667%" stop-color="rgba(155,106,255,0.852589)"/><stop id="eKzgDa6fvL146-fill-5" offset="33.3333%" stop-color="rgba(155,106,255,0.768225)"/><stop id="eKzgDa6fvL146-fill-6" offset="40%" stop-color="rgba(155,106,255,0.668116)"/><stop id="eKzgDa6fvL146-fill-7" offset="46.6667%" stop-color="rgba(155,106,255,0.557309)"/><stop id="eKzgDa6fvL146-fill-8" offset="53.3333%" stop-color="rgba(155,106,255,0.442691)"/><stop id="eKzgDa6fvL146-fill-9" offset="60%" stop-color="rgba(155,106,255,0.331884)"/><stop id="eKzgDa6fvL146-fill-10" offset="66.6667%" stop-color="rgba(155,106,255,0.231775)"/><stop id="eKzgDa6fvL146-fill-11" offset="73.3333%" stop-color="rgba(155,106,255,0.147411)"/><stop id="eKzgDa6fvL146-fill-12" offset="80%" stop-color="rgba(155,106,255,0.0816599)"/><stop id="eKzgDa6fvL146-fill-13" offset="86.6667%" stop-color="rgba(155,106,255,0.03551)"/><stop id="eKzgDa6fvL146-fill-14" offset="93.3333%" stop-color="rgba(155,106,255,0.01)"/><stop id="eKzgDa6fvL146-fill-15" offset="100%" stop-color="rgba(155,106,255,0)"/></linearGradient><linearGradient id="eKzgDa6fvL147-stroke" x1="1240.36" y1="939" x2="963.507" y2="843.224" spreadMethod="pad" gradientUnits="userSpaceOnUse" gradientTransform="translate(0 0)"><stop id="eKzgDa6fvL147-stroke-0" offset="0%" stop-color="#21064e"/><stop id="eKzgDa6fvL147-stroke-1" offset="100%" stop-color="rgba(33,6,78,0)"/></linearGradient><linearGradient id="eKzgDa6fvL149-stroke" x1="0" y1="0.5" x2="1" y2="0.5" spreadMethod="pad" gradientUnits="objectBoundingBox" gradientTransform="translate(0 0)"><stop id="eKzgDa6fvL149-stroke-0" offset="0%" stop-color="#3f5787"/><stop id="eKzgDa6fvL149-stroke-1" offset="100%" stop-color="#c0a878"/></linearGradient></defs><path d="M-80.5001,-0.000064C-449.15,-0.000031,-748,299.969,-748,670h1335C587,299.969,288.15,-0.000096,-80.5001,-0.000064Z" fill="#36147d" fill-opacity="0.27"/><path d="M1320,294c-155.74,0-282,126.703-282,283h564c0-156.297-126.26-283-282-283Z" fill="#36147d" fill-opacity="0.27"/><path d="M1444,577h-432.05c-66.276,0-120.001,53.726-120.001,120v589h552.051v-709Z" fill="#9b6aff"/><path d="M891,697c0-66.274,53.726-120,120-120h433v709h-553v-589Z" fill="url(#eKzgDa6fvL15-fill)" fill-opacity="0.5"/><g transform="translate(130.003182 541.588485)"><g id="eKzgDa6fvL17"><path d="M221,126c0-60.7513-49.249-110-110-110C50.2487,16,1,65.2487,1,126" fill="none" stroke="#fff" stroke-width="2"/><path d="M169,126c0-32.0325-25.967-58-58-58-32.0325,0-58,25.9675-58,58" fill="none" stroke="#fff" stroke-width="2"/><circle r="12" transform="matrix(0 1-1 0 111 16)" fill="#ffb636" stroke="#270a5b" stroke-width="8"/><circle r="12" transform="matrix(0 1-1 0 31 53)" fill="#35f0d0" stroke="#270a5b" stroke-width="8"/><circle r="12" transform="matrix(0 1-1 0 155 89)" fill="#35f0d0" stroke="#270a5b" stroke-width="8"/><circle r="12" transform="matrix(0 1-1 0 191 53)" fill="#9b6aff" stroke="#270a5b" stroke-width="8"/><circle r="12" transform="matrix(0 1-1 0 69 89)" fill="#9b6aff" stroke="#270a5b" stroke-width="8"/><path d="M221,126c0,60.751-49.249,110-110,110C50.2487,236,1,186.751,1,126" fill="none" stroke="#fff" stroke-width="2"/><path d="M169,126c0,32.033-25.967,58-58,58-32.0325,0-58-25.967-58-58" fill="none" stroke="#fff" stroke-width="2"/><circle r="12" transform="matrix(0-1-1 0 111 236)" fill="#ffb636" stroke="#270a5b" stroke-width="8"/><circle r="12" transform="matrix(0-1-1 0 31 199)" fill="#35f0d0" stroke="#270a5b" stroke-width="8"/><circle r="12" transform="matrix(0-1-1 0 155 163)" fill="#35f0d0" stroke="#270a5b" stroke-width="8"/><circle r="12" transform="matrix(0-1-1 0 191 199)" fill="#9b6aff" stroke="#270a5b" stroke-width="8"/><circle r="12" transform="matrix(0-1-1 0 69 163)" fill="#9b6aff" stroke="#270a5b" stroke-width="8"/></g></g><path d="M1429,504c-157.4,0-285,128.047-285,286h570c0-157.953-127.6-286-285-286Z" fill="#36147d"/><g transform="translate(-3 0)" clip-path="url(#eKzgDa6fvL129)"><g><path d="M3,670h829c66.274,0,120,53.726,120,120v496h-949v-616Z" fill="#36147d"/><path d="M183,849c0-98.859-80.589-179-180-179v358c99.411,0,180-80.141,180-179Z" fill="#4c249f"/><path d="M737.5,894C585.346,894,462,1018.02,462,1171h551c0-152.98-123.346-277-275.5-277Z" fill="#4c249f"/><path d="M952,790c0-66.274-53.726-120-120-120h-829v617h949v-497Z" transform="translate(1.686975 0.539597)" fill="url(#eKzgDa6fvL128-fill)" fill-opacity="0.51"/></g><clipPath id="eKzgDa6fvL129"><rect width="949" height="617" rx="0" ry="0" transform="translate(3 670)" fill="#fff"/></clipPath></g><path d="M576,1024h-44c-44.183,0-80-35.817-80-80v-42c0-66.274-53.726-120-120-120h-330" transform="translate(-.186653 0)" fill="none" stroke="#21064e" stroke-width="40"/><g id="eKzgDa6fvL135" transform="matrix(0-1 1 0-900 1234)"><path id="eKzgDa6fvL137" d="M-501.506673,922.394778c4.66007,0,39.270764,0,103.832082,0" transform="matrix(0 0.475496-1 0 1374.304163 1111.855638)" fill="none" fill-rule="evenodd" stroke="url(#eKzgDa6fvL137-stroke)" stroke-width="16"/><circle r="8" transform="matrix(0 1-1 0 452 923)" fill="#35f0d0"/></g><path d="M1441,790h-745c-66.274,0-120,53.726-120,120v376h865v-496Z" fill="#6438c1"/><path d="M576,910c0-66.274,53.726-120,120-120h745v496h-865v-376Z" fill="url(#eKzgDa6fvL140-fill)" fill-opacity="0.51"/><path d="M576,1171h-178c-63.513,0-115,51.49-115,115v0h293v-115Z" fill="#9b6aff"/><path d="M283,1286c0-63.51,51.487-115,115-115h178v115h-293v0Z" fill="url(#eKzgDa6fvL142-fill)" fill-opacity="0.51"/><path d="M1005,1286v-53c0-8.84-7.163-16-16-16h-211c-8.837,0-16-7.16-16-16v-30" fill="none" stroke="url(#eKzgDa6fvL143-stroke)" stroke-width="16"/><rect width="63" height="16" rx="0" ry="0" transform="translate(836 1209)" fill="url(#eKzgDa6fvL144-fill)" fill-opacity="0.46"/><circle r="8" transform="translate(899 1217)" fill="#ffb636"/><rect width="63" height="16" rx="0" ry="0" transform="translate(1115 872)" fill="url(#eKzgDa6fvL146-fill)" fill-opacity="0.46"/><path d="M1005,791v73.062c0,8.836,7.16,16,16,16h210c8.84,0,16,7.163,16,16v42.938" fill="none" stroke="url(#eKzgDa6fvL147-stroke)" stroke-width="16"/><circle r="8" transform="translate(1178 880)" fill="#35f0d0"/><path d="M300.700719,451.791847h77.638874-77.638874Z" fill="none" stroke="url(#eKzgDa6fvL149-stroke)" stroke-width="16"/>
<script><![CDATA[
(function(s,i,u,o,c,w,d,t,n,x,e,p,a,b){(a=Array.from(d.querySelectorAll('svg#' + i.root)).filter(n=> !n.svgatorPlayer)[0]||{}).svgatorPlayer={ready:(function(a){b=[];return function(c){return c?(b.push(c),a.svgatorPlayer):b}})(a)};w[o]=w[o]||{};w[o][s]=w[o][s]||[];w[o][s].push(i);e=d.createElementNS(n,t);e.async=true;e.setAttributeNS(x,'href',[u,s,'.','j','s','?','v','=',c].join(''));e.setAttributeNS(null,'src',[u,s,'.','j','s','?','v','=',c].join(''));p=d.getElementsByTagName(t)[0];p.parentNode.insertBefore(e,p);})('91c80d77',{"root":"eKzgDa6fvL11","version":"2022-05-04","animations":[{"elements":{"eKzgDa6fvL17":{"transform":{"data":{"o":{"x":111,"y":126,"type":"corner"},"t":{"x":-111,"y":-126}},"keys":{"r":[{"t":100,"v":720,"e":[0.25,0.46,0.45,0.94]},{"t":5400,"v":0}]}}},"eKzgDa6fvL135":{"transform":{"data":{"t":{"x":-452,"y":-902}},"keys":{"o":[{"t":0,"v":{"x":2,"y":782,"type":"cusp"}},{"t":880,"v":{"x":121.016393,"y":782,"type":"corner"}},{"t":2440,"v":{"x":332,"y":782,"type":"cusp","end":{"x":398.274,"y":782}}},{"t":3840,"v":{"x":452,"y":902,"type":"cusp","start":{"x":452,"y":835.726}}},{"t":4150,"v":{"x":452,"y":944,"type":"cusp","end":{"x":452,"y":988.183}}},{"t":5080,"v":{"x":532,"y":1024,"type":"cusp","start":{"x":487.817,"y":1024}}},{"t":5400,"v":{"x":604.666667,"y":1024,"type":"corner"}},{"t":6000,"v":{"x":606,"y":1024,"type":"cusp"}}],"r":[{"t":0,"v":-90},{"t":2400,"v":-90},{"t":2900,"v":-55.010168},{"t":3200,"v":-36.673445},{"t":3800,"v":0},{"t":4000,"v":0.266846},{"t":5100,"v":-88.490845}]}}},"eKzgDa6fvL137":{"d":[{"t":1400,"v":["M",-501.506673,922.394778,"C",-496.846603,922.394778,-462.235909,922.394778,-397.674591,922.394778]},{"t":2400,"v":["M",-501.506673,922.394778,"C",-496.846603,922.394778,-462.235909,922.394778,-397.674591,922.394778]},{"t":2500,"v":["M",-501.506673,922.394778,"C",-458.210675,920.075172,-423.599981,920.075172,-397.674591,922.394778]},{"t":2700,"v":["M",-501.506673,922.394778,"C",-458.655284,918.158438,-424.04459,918.158438,-397.674591,922.394778]},{"t":2900,"v":["M",-507.073562,925.365696,"C",-460.332751,919.193268,-423.866427,918.202962,-397.674591,922.394778]},{"t":3200,"v":["M",-507.073562,925.365696,"C",-461.314841,919.432089,-424.848517,918.441783,-397.674591,922.394778]},{"t":3600,"v":["M",-507.530533,927.18729,"C",-461.771812,921.253683,-425.153164,919.656179,-397.674591,922.394778]},{"t":3800,"v":["M",-507.530533,927.18729,"C",-464.179753,923.157726,-427.561106,921.560222,-397.674591,922.394778]},{"t":4000,"v":["M",-499.415106,922.620089,"C",-456.159235,921.516452,-422.24573,921.441349,-397.674591,922.394778]},{"t":4100,"v":["M",-498.049379,918.54366,"C",-450.725502,921.68182,-417.267239,922.965526,-397.674591,922.394778]},{"t":4300,"v":["M",-498.049379,918.54366,"C",-450.794807,924.939372,-417.336544,926.223078,-397.674591,922.394778]},{"t":4600,"v":["M",-494.317416,916.231861,"C",-454.423985,926.326657,-417.336544,926.223078,-397.674591,922.394778]},{"t":4900,"v":["M",-494.317416,916.231861,"C",-445.996004,924.663269,-426.468513,926.427531,-397.674591,922.394778]},{"t":5100,"v":["M",-488.202011,923.655239,"C",-442.645808,923.084542,-428.527369,923.425411,-397.176081,922.304163]}]}},"s":"MDVA1ZDkwMzc3OSThhODc3Njg5SVzdlODRVODMHzNzRmNGI0NTKQ1NDVFNDEzNWzc5N2U4NzdhJNzg4OTdlODQT4MzM3NGY0NjXQxMzc3ZTg5NC2E4Nzc2ODk3RZTg0ODM4ODMU3NGY0NTQxMzSc3YlA3ZTgxSSzgxUTM3NGY0ENjQxRTM3NzYY4MTg5N2E4NzKgzNzY4OTdhMLzc0ZjdiNzY4OMTg4N2E0MTMB3ODg4NTdhN2XE3OTM3NGY0NNjQxMzc3Yjg1NODgzNzRmNDZKVNDU0NTky"}],"options":"MDGAxMDgyMjk3YGU43YjY4Nzk3LYjI5NDFTMjkQ3Mzc2Njg2YjNI5ODQ/"},'https://cdn.svgator.com/ply/','__SVGATOR_PLAYER__','2022-05-04',window,document,'script','http://www.w3.org/2000/svg','http://www.w3.org/1999/xlink')
]]></script>
</svg>
