<svg width="1440" height="1460" viewBox="0 0 1440 1460" fill="none" xmlns="http://www.w3.org/2000/svg">
<g clip-path="url(#clip0_3306_58662)">
<rect width="1440" height="1460" fill="#21064E"/>
<path fill-rule="evenodd" clip-rule="evenodd" d="M0 324H188C199.046 324 208 332.954 208 344V423H1240V344C1240 332.954 1248.95 324 1260 324H1440V1107H1284H1240H208H181H0V324Z" fill="url(#paint0_linear_3306_58662)"/>
<path fill-rule="evenodd" clip-rule="evenodd" d="M0 324H188C199.046 324 208 332.954 208 344V423H1240V344C1240 332.954 1248.95 324 1260 324H1440V1107H1284H1240H208H181H0V324Z" fill="url(#paint1_linear_3306_58662)"/>
<path d="M801 720C587.818 720 415 893.266 415 1107L1187 1107C1187 893.266 1014.18 720 801 720Z" fill="url(#paint2_linear_3306_58662)"/>
<path d="M208.5 404.255H100C33.7258 404.255 -20 457.981 -20 524.255V532" stroke="#21064E" stroke-width="30"/>
<path d="M208 350H1240V420C1240 442.091 1222.09 460 1200 460H248C225.909 460 208 442.091 208 420V350Z" fill="#36157D"/>
<path d="M1250.95 318L1251.42 316.655L1252.71 317.268L1252.1 315.978L1253.45 315.5L1252.1 315.021L1252.71 313.732L1251.42 314.345L1250.95 313L1250.47 314.345L1249.18 313.732L1249.79 315.021L1248.45 315.5L1249.79 315.978L1249.18 317.268L1250.47 316.655L1250.95 318Z" fill="#B18CFF" fill-opacity="0.25"/>
<path d="M1243.95 309L1244.62 307.117L1246.42 307.975L1245.56 306.169L1247.45 305.5L1245.56 304.83L1246.42 303.025L1244.62 303.883L1243.95 302L1243.28 303.883L1241.47 303.025L1242.33 304.83L1240.45 305.5L1242.33 306.169L1241.47 307.975L1243.28 307.117L1243.95 309Z" fill="#B18CFF" fill-opacity="0.4"/>
<path d="M1233.95 300L1235 297.04L1237.83 298.389L1236.49 295.552L1239.45 294.5L1236.49 293.447L1237.83 290.611L1235 291.959L1233.95 289L1232.89 291.959L1230.06 290.611L1231.4 293.447L1228.45 294.5L1231.4 295.552L1230.06 298.389L1232.89 297.04L1233.95 300Z" fill="#B18CFF" fill-opacity="0.6"/>
<path fill-rule="evenodd" clip-rule="evenodd" d="M1169.78 247.768C1169.77 247.75 1169.76 247.732 1169.74 247.714C1166.04 242.589 1158.88 241.439 1153.75 245.146C1148.63 248.853 1147.48 256.012 1151.18 261.137C1151.2 261.155 1151.21 261.173 1151.22 261.191L1169.78 247.768Z" fill="#FFB636"/>
<circle cx="1169.31" cy="242.844" r="2.68729" transform="rotate(-5.48154 1169.31 242.844)" fill="#36147D"/>
<path fill-rule="evenodd" clip-rule="evenodd" d="M1166.69 230.048C1166.65 230.101 1166.62 230.153 1166.58 230.205C1156.12 245.357 1159.93 266.118 1175.08 276.577C1190.23 287.036 1210.99 283.232 1221.45 268.081C1221.49 268.029 1221.52 267.976 1221.56 267.923L1166.69 230.048Z" fill="#9B6AFF"/>
<circle cx="1170.75" cy="244.026" r="4" transform="rotate(-5.48154 1170.75 244.026)" fill="#21064E"/>
<rect x="1202.52" y="270.342" width="5.75848" height="20.4746" transform="rotate(-42.086 1202.52 270.342)" fill="#9B6AFF"/>
<path fill-rule="evenodd" clip-rule="evenodd" d="M1220.91 281.336C1220.88 281.306 1220.85 281.277 1220.83 281.248C1218.12 278.288 1213.77 277.861 1211.11 280.295C1208.44 282.729 1208.48 287.101 1211.18 290.061C1211.21 290.09 1211.23 290.119 1211.26 290.148L1220.91 281.336Z" fill="#FFB636"/>
<path fill-rule="evenodd" clip-rule="evenodd" d="M1213.4 254.37C1213.39 254.4 1213.39 254.43 1213.38 254.46C1211.94 263.083 1203.78 268.901 1195.15 267.455C1186.53 266.009 1180.71 257.847 1182.16 249.225C1182.16 249.195 1182.17 249.165 1182.17 249.135L1213.4 254.37Z" fill="#8050E3"/>
<path d="M332 1107C332 1035.66 303.659 967.236 253.212 916.788C202.764 866.341 134.343 838 63 838C-8.34322 838 -76.7644 866.341 -127.212 916.788C-177.659 967.236 -206 1035.66 -206 1107L63 1107H332Z" fill="#4C249F"/>
<path d="M332 1107C332 1035.66 303.659 967.236 253.212 916.788C202.764 866.341 134.343 838 63 838C-8.34322 838 -76.7644 866.341 -127.212 916.788C-177.659 967.236 -206 1035.66 -206 1107L63 1107H332Z" fill="#4C249F"/>
<path d="M332 1107C332 1071.67 325.042 1036.69 311.524 1004.06C298.005 971.422 278.191 941.767 253.212 916.788C228.233 891.809 198.578 871.995 165.942 858.476C133.305 844.958 98.3256 838 63 838C27.6744 838 -7.30527 844.958 -39.9419 858.476C-72.5784 871.995 -102.233 891.809 -127.212 916.788C-152.191 941.767 -172.005 971.422 -185.524 1004.06C-199.042 1036.69 -206 1071.67 -206 1107L63 1107H332Z" fill="url(#paint3_linear_3306_58662)"/>
<path d="M1083 970C1083 903.726 1136.73 850 1203 850H1628V1107H1083V970Z" fill="#36147D"/>
<path d="M777 1227C777 1160.73 830.726 1107 897 1107H1444V1569H777V1227Z" fill="url(#paint4_linear_3306_58662)" fill-opacity="0.51"/>
<path opacity="0.5" d="M112 1494C325.182 1494 498 1320.73 498 1107L-274 1107C-274 1320.73 -101.182 1494 112 1494Z" fill="url(#paint5_linear_3306_58662)"/>
<rect x="1059.72" y="340.565" width="75.2768" height="21.2546" rx="10.6273" fill="#FA48E8"/>
<rect x="1095.69" y="303.968" width="60.2758" height="8.4133" rx="4.20665" transform="rotate(120 1095.69 303.968)" fill="#FA48E8"/>
<path d="M1096.01 300.395C1096.01 298.255 1095.59 296.136 1094.77 294.159C1093.94 292.182 1092.74 290.385 1091.21 288.872C1089.69 287.359 1087.89 286.158 1085.9 285.339C1083.91 284.52 1081.78 284.099 1079.63 284.099C1077.47 284.099 1075.34 284.52 1073.36 285.339C1071.37 286.158 1069.56 287.359 1068.04 288.872C1066.52 290.385 1065.31 292.182 1064.49 294.159C1063.66 296.136 1063.24 298.255 1063.24 300.395L1079.63 300.395H1096.01Z" fill="#FA48E8"/>
<path d="M1086.47 312.178C1088.09 311.742 1089.62 310.991 1090.95 309.966C1092.29 308.941 1093.41 307.664 1094.25 306.206C1095.09 304.748 1095.64 303.139 1095.86 301.47C1096.08 299.801 1095.97 298.105 1095.53 296.48C1095.1 294.854 1094.35 293.33 1093.32 291.994C1092.3 290.659 1091.02 289.538 1089.56 288.697C1088.1 287.855 1086.49 287.309 1084.82 287.089C1083.16 286.869 1081.46 286.98 1079.83 287.416L1083.15 299.797L1086.47 312.178Z" fill="#FA48E8"/>
<circle cx="1078.07" cy="288.127" r="5.12707" fill="#F5F0FF"/>
<circle cx="1079.72" cy="288.127" r="1.64799" fill="black"/>
<mask id="mask0_3306_58662" style="mask-type:alpha" maskUnits="userSpaceOnUse" x="1056" y="289" width="18" height="15">
<path d="M1064.98 289.775L1073.62 303.508H1056.34L1064.98 289.775Z" fill="#D9D9D9"/>
</mask>
<g mask="url(#mask0_3306_58662)">
<path d="M1096.01 300.396C1096.01 298.256 1095.59 296.136 1094.77 294.159C1093.94 292.182 1092.74 290.385 1091.21 288.872C1089.69 287.359 1087.89 286.158 1085.9 285.339C1083.91 284.52 1081.78 284.099 1079.63 284.099C1077.47 284.099 1075.34 284.52 1073.36 285.339C1071.37 286.158 1069.56 287.359 1068.04 288.872C1066.52 290.385 1065.31 292.182 1064.49 294.159C1063.66 296.136 1063.24 298.256 1063.24 300.396L1079.63 300.396H1096.01Z" fill="#770F6D"/>
</g>
<path d="M19.0082 464.08L-11.8299 556.047L-26.9998 550.961L3.83826 458.993C13.4541 430.316 36.4048 409.869 63.4752 402.24L67.7373 417.664C45.6169 423.92 26.868 440.64 19.0082 464.08Z" fill="url(#paint6_linear_3306_58662)" fill-opacity="0.46"/>
<circle cx="65.5885" cy="410.088" r="8" transform="rotate(18.537 65.5885 410.088)" fill="#FFB636"/>
<circle cx="226.588" cy="444.128" r="8" transform="rotate(18.537 226.588 444.128)" fill="#FFB636"/>
<path d="M11.4971 459.5L-25.503 548L-43.5029 539.5L-0.502942 450C6.11318 430.269 22.76 421.944 39 411.5L48 424C34.2683 432.533 17.0384 442.974 11.4971 459.5Z" fill="url(#paint7_linear_3306_58662)" fill-opacity="0.46"/>
<circle cx="42.1275" cy="418.128" r="8" transform="rotate(18.537 42.1275 418.128)" fill="#35F0D0"/>
<circle cx="1216" cy="445" r="8" fill="#35F0D0"/>
<circle cx="241" cy="452" r="8" fill="#9B6AFF"/>
<circle cx="257" cy="452" r="8" fill="#35F0D0"/>
<circle cx="273" cy="452" r="8" fill="#FFB636"/>
<circle cx="289" cy="452" r="8" fill="#9B6AFF"/>
<circle cx="305" cy="452" r="8" fill="#35F0D0"/>
<circle cx="321" cy="452" r="8" fill="#FFB636"/>
<circle cx="337" cy="452" r="8" fill="#9B6AFF"/>
<circle cx="353" cy="452" r="8" fill="#35F0D0"/>
<circle cx="369" cy="452" r="8" fill="#FFB636"/>
<circle cx="385" cy="452" r="8" fill="#9B6AFF"/>
<circle cx="401" cy="452" r="8" fill="#35F0D0"/>
<circle cx="417" cy="452" r="8" fill="#FFB636"/>
<circle cx="433" cy="452" r="8" fill="#9B6AFF"/>
<circle cx="449" cy="452" r="8" fill="#35F0D0"/>
<circle cx="465" cy="452" r="8" fill="#FFB636"/>
<circle cx="481" cy="452" r="8" fill="#9B6AFF"/>
<circle cx="497" cy="452" r="8" fill="#35F0D0"/>
<circle cx="513" cy="452" r="8" fill="#FFB636"/>
<circle cx="529" cy="452" r="8" fill="#9B6AFF"/>
<circle cx="545" cy="452" r="8" fill="#35F0D0"/>
<circle cx="561" cy="452" r="8" fill="#FFB636"/>
<circle cx="577" cy="452" r="8" fill="#9B6AFF"/>
<circle cx="593" cy="452" r="8" fill="#35F0D0"/>
<circle cx="609" cy="452" r="8" fill="#FFB636"/>
<circle cx="625" cy="452" r="8" fill="#9B6AFF"/>
<circle cx="641" cy="452" r="8" fill="#35F0D0"/>
<circle cx="657" cy="452" r="8" fill="#FFB636"/>
<circle cx="673" cy="452" r="8" fill="#9B6AFF"/>
<circle cx="689" cy="452" r="8" fill="#35F0D0"/>
<circle cx="705" cy="452" r="8" fill="#FFB636"/>
<circle cx="721" cy="452" r="8" fill="#9B6AFF"/>
<circle cx="737" cy="452" r="8" fill="#35F0D0"/>
<circle cx="753" cy="452" r="8" fill="#FFB636"/>
<circle cx="769" cy="452" r="8" fill="#9B6AFF"/>
<circle cx="785" cy="452" r="8" fill="#35F0D0"/>
<circle cx="801" cy="452" r="8" fill="#FFB636"/>
<circle cx="817" cy="452" r="8" fill="#9B6AFF"/>
<circle cx="833" cy="452" r="8" fill="#35F0D0"/>
<circle cx="849" cy="452" r="8" fill="#FFB636"/>
<circle cx="865" cy="452" r="8" fill="#9B6AFF"/>
<circle cx="881" cy="452" r="8" fill="#35F0D0"/>
<circle cx="897" cy="452" r="8" fill="#FFB636"/>
<circle cx="913" cy="452" r="8" fill="#9B6AFF"/>
<circle cx="929" cy="452" r="8" fill="#35F0D0"/>
<circle cx="945" cy="452" r="8" fill="#FFB636"/>
<circle cx="961" cy="452" r="8" fill="#9B6AFF"/>
<circle cx="977" cy="452" r="8" fill="#35F0D0"/>
<circle cx="993" cy="452" r="8" fill="#FFB636"/>
<circle cx="1009" cy="452" r="8" fill="#9B6AFF"/>
<circle cx="1025" cy="452" r="8" fill="#35F0D0"/>
<circle cx="1041" cy="452" r="8" fill="#FFB636"/>
<circle cx="1057" cy="452" r="8" fill="#9B6AFF"/>
<circle cx="1073" cy="452" r="8" fill="#35F0D0"/>
<circle cx="1089" cy="452" r="8" fill="#FFB636"/>
<circle cx="1105" cy="452" r="8" fill="#9B6AFF"/>
<circle cx="1121" cy="452" r="8" fill="#35F0D0"/>
<circle cx="1137" cy="452" r="8" fill="#FFB636"/>
<circle cx="1153" cy="452" r="8" fill="#9B6AFF"/>
<circle cx="1169" cy="452" r="8" fill="#35F0D0"/>
<circle cx="1185" cy="452" r="8" fill="#FFB636"/>
<circle cx="1201" cy="452" r="8" fill="#9B6AFF"/>
<path d="M208 350H1240V420C1240 442.091 1222.09 460 1200 460H248C225.909 460 208 442.091 208 420V350Z" fill="url(#paint8_linear_3306_58662)" fill-opacity="0.5"/>
<path d="M360.077 269.636L375.54 292.23L396.159 274.523L391.317 301.45L418.382 303.706L396.072 319.193L413.728 340.092L387.018 335.065L384.923 362.365L369.46 339.77L348.842 357.478L353.683 330.551L326.619 328.294L348.929 312.808L331.272 291.909L357.982 296.935L360.077 269.636Z" fill="#9B6AFF"/>
<rect x="1373" y="1054" width="69" height="16" rx="8" transform="rotate(-90 1373 1054)" fill="#4D25A0"/>
<rect x="1317" y="1055" width="69" height="16" rx="8" transform="rotate(-90 1317 1055)" fill="#4D25A0"/>
<rect x="1261" y="1054" width="69" height="16" rx="8" transform="rotate(-90 1261 1054)" fill="#4D25A0"/>
<rect x="1389" y="997" width="30" height="16" transform="rotate(90 1389 997)" fill="url(#paint9_linear_3306_58662)" fill-opacity="0.46"/>
<circle cx="1381" cy="1027" r="8" transform="rotate(90 1381 1027)" fill="#FFB636"/>
<rect x="1317" y="1024" width="30" height="16" transform="rotate(-90 1317 1024)" fill="url(#paint10_linear_3306_58662)" fill-opacity="0.46"/>
<circle cx="1325" cy="994" r="8" transform="rotate(-90 1325 994)" fill="#9B6AFF"/>
<rect x="1277" y="1016" width="30" height="16" transform="rotate(90 1277 1016)" fill="url(#paint11_linear_3306_58662)" fill-opacity="0.46"/>
<circle cx="1269" cy="1046" r="8" transform="rotate(90 1269 1046)" fill="#35F0D0"/>
</g>
<defs>
<linearGradient id="paint0_linear_3306_58662" x1="166" y1="502" x2="1320" y2="484.5" gradientUnits="userSpaceOnUse">
<stop stop-color="#4C249F"/>
<stop offset="1" stop-color="#6436C0"/>
</linearGradient>
<linearGradient id="paint1_linear_3306_58662" x1="8.23204e-07" y1="500" x2="1821.5" y2="486.5" gradientUnits="userSpaceOnUse">
<stop stop-color="#9868FA" stop-opacity="0"/>
<stop offset="0.806355" stop-color="#46248C"/>
</linearGradient>
<linearGradient id="paint2_linear_3306_58662" x1="994.945" y1="1020.3" x2="386.037" y2="1000.11" gradientUnits="userSpaceOnUse">
<stop stop-color="#4C249F"/>
<stop offset="1" stop-color="#4C249F" stop-opacity="0"/>
</linearGradient>
<linearGradient id="paint3_linear_3306_58662" x1="332" y1="1063.86" x2="-249.142" y2="1057.51" gradientUnits="userSpaceOnUse">
<stop stop-color="#18073D" stop-opacity="0"/>
<stop offset="0.807292" stop-color="#18073D"/>
</linearGradient>
<linearGradient id="paint4_linear_3306_58662" x1="659.737" y1="1551.5" x2="1114.21" y2="1146.45" gradientUnits="userSpaceOnUse">
<stop stop-color="#21064E" stop-opacity="0"/>
<stop offset="0.895863" stop-color="#3B137D"/>
</linearGradient>
<linearGradient id="paint5_linear_3306_58662" x1="-81.9446" y1="1193.7" x2="526.963" y2="1213.89" gradientUnits="userSpaceOnUse">
<stop stop-color="#4C249F"/>
<stop offset="1" stop-color="#4C249F" stop-opacity="0"/>
</linearGradient>
<linearGradient id="paint6_linear_3306_58662" x1="65.7488" y1="409.614" x2="50.5536" y2="418.757" gradientUnits="userSpaceOnUse">
<stop stop-color="#9B6AFF"/>
<stop offset="0.0666667" stop-color="#9B6AFF" stop-opacity="0.991353"/>
<stop offset="0.133333" stop-color="#9B6AFF" stop-opacity="0.96449"/>
<stop offset="0.2" stop-color="#9B6AFF" stop-opacity="0.91834"/>
<stop offset="0.266667" stop-color="#9B6AFF" stop-opacity="0.852589"/>
<stop offset="0.333333" stop-color="#9B6AFF" stop-opacity="0.768225"/>
<stop offset="0.4" stop-color="#9B6AFF" stop-opacity="0.668116"/>
<stop offset="0.466667" stop-color="#9B6AFF" stop-opacity="0.557309"/>
<stop offset="0.533333" stop-color="#9B6AFF" stop-opacity="0.442691"/>
<stop offset="0.6" stop-color="#9B6AFF" stop-opacity="0.331884"/>
<stop offset="0.666667" stop-color="#9B6AFF" stop-opacity="0.231775"/>
<stop offset="0.733333" stop-color="#9B6AFF" stop-opacity="0.147411"/>
<stop offset="0.8" stop-color="#9B6AFF" stop-opacity="0.0816599"/>
<stop offset="0.866667" stop-color="#9B6AFF" stop-opacity="0.03551"/>
<stop offset="0.933333" stop-color="#9B6AFF" stop-opacity="0.01"/>
<stop offset="1" stop-color="#9B6AFF" stop-opacity="0"/>
</linearGradient>
<linearGradient id="paint7_linear_3306_58662" x1="44.0626" y1="422.383" x2="1.49838" y2="452.5" gradientUnits="userSpaceOnUse">
<stop stop-color="#9B6AFF"/>
<stop offset="0.0666667" stop-color="#9B6AFF" stop-opacity="0.991353"/>
<stop offset="0.133333" stop-color="#9B6AFF" stop-opacity="0.96449"/>
<stop offset="0.2" stop-color="#9B6AFF" stop-opacity="0.91834"/>
<stop offset="0.266667" stop-color="#9B6AFF" stop-opacity="0.852589"/>
<stop offset="0.333333" stop-color="#9B6AFF" stop-opacity="0.768225"/>
<stop offset="0.4" stop-color="#9B6AFF" stop-opacity="0.668116"/>
<stop offset="0.466667" stop-color="#9B6AFF" stop-opacity="0.557309"/>
<stop offset="0.533333" stop-color="#9B6AFF" stop-opacity="0.442691"/>
<stop offset="0.6" stop-color="#9B6AFF" stop-opacity="0.331884"/>
<stop offset="0.666667" stop-color="#9B6AFF" stop-opacity="0.231775"/>
<stop offset="0.733333" stop-color="#9B6AFF" stop-opacity="0.147411"/>
<stop offset="0.8" stop-color="#9B6AFF" stop-opacity="0.0816599"/>
<stop offset="0.866667" stop-color="#9B6AFF" stop-opacity="0.03551"/>
<stop offset="0.933333" stop-color="#9B6AFF" stop-opacity="0.01"/>
<stop offset="1" stop-color="#9B6AFF" stop-opacity="0"/>
</linearGradient>
<linearGradient id="paint8_linear_3306_58662" x1="1240" y1="405" x2="208" y2="405" gradientUnits="userSpaceOnUse">
<stop stop-color="#21064E"/>
<stop offset="0.0666667" stop-color="#21064E" stop-opacity="0.991353"/>
<stop offset="0.133333" stop-color="#21064E" stop-opacity="0.96449"/>
<stop offset="0.2" stop-color="#21064E" stop-opacity="0.91834"/>
<stop offset="0.266667" stop-color="#21064E" stop-opacity="0.852589"/>
<stop offset="0.333333" stop-color="#21064E" stop-opacity="0.768225"/>
<stop offset="0.4" stop-color="#21064E" stop-opacity="0.668116"/>
<stop offset="0.466667" stop-color="#21064E" stop-opacity="0.557309"/>
<stop offset="0.533333" stop-color="#21064E" stop-opacity="0.442691"/>
<stop offset="0.6" stop-color="#21064E" stop-opacity="0.331884"/>
<stop offset="0.666667" stop-color="#21064E" stop-opacity="0.231775"/>
<stop offset="0.733333" stop-color="#21064E" stop-opacity="0.147411"/>
<stop offset="0.8" stop-color="#21064E" stop-opacity="0.0816599"/>
<stop offset="0.866667" stop-color="#21064E" stop-opacity="0.03551"/>
<stop offset="0.933333" stop-color="#21064E" stop-opacity="0.01"/>
<stop offset="1" stop-color="#21064E" stop-opacity="0"/>
</linearGradient>
<linearGradient id="paint9_linear_3306_58662" x1="1419" y1="1003" x2="1389" y2="1003" gradientUnits="userSpaceOnUse">
<stop stop-color="#9B6AFF"/>
<stop offset="0.0666667" stop-color="#9B6AFF" stop-opacity="0.991353"/>
<stop offset="0.133333" stop-color="#9B6AFF" stop-opacity="0.96449"/>
<stop offset="0.2" stop-color="#9B6AFF" stop-opacity="0.91834"/>
<stop offset="0.266667" stop-color="#9B6AFF" stop-opacity="0.852589"/>
<stop offset="0.333333" stop-color="#9B6AFF" stop-opacity="0.768225"/>
<stop offset="0.4" stop-color="#9B6AFF" stop-opacity="0.668116"/>
<stop offset="0.466667" stop-color="#9B6AFF" stop-opacity="0.557309"/>
<stop offset="0.533333" stop-color="#9B6AFF" stop-opacity="0.442691"/>
<stop offset="0.6" stop-color="#9B6AFF" stop-opacity="0.331884"/>
<stop offset="0.666667" stop-color="#9B6AFF" stop-opacity="0.231775"/>
<stop offset="0.733333" stop-color="#9B6AFF" stop-opacity="0.147411"/>
<stop offset="0.8" stop-color="#9B6AFF" stop-opacity="0.0816599"/>
<stop offset="0.866667" stop-color="#9B6AFF" stop-opacity="0.03551"/>
<stop offset="0.933333" stop-color="#9B6AFF" stop-opacity="0.01"/>
<stop offset="1" stop-color="#9B6AFF" stop-opacity="0"/>
</linearGradient>
<linearGradient id="paint10_linear_3306_58662" x1="1347" y1="1030" x2="1317" y2="1030" gradientUnits="userSpaceOnUse">
<stop stop-color="#9B6AFF"/>
<stop offset="0.0666667" stop-color="#9B6AFF" stop-opacity="0.991353"/>
<stop offset="0.133333" stop-color="#9B6AFF" stop-opacity="0.96449"/>
<stop offset="0.2" stop-color="#9B6AFF" stop-opacity="0.91834"/>
<stop offset="0.266667" stop-color="#9B6AFF" stop-opacity="0.852589"/>
<stop offset="0.333333" stop-color="#9B6AFF" stop-opacity="0.768225"/>
<stop offset="0.4" stop-color="#9B6AFF" stop-opacity="0.668116"/>
<stop offset="0.466667" stop-color="#9B6AFF" stop-opacity="0.557309"/>
<stop offset="0.533333" stop-color="#9B6AFF" stop-opacity="0.442691"/>
<stop offset="0.6" stop-color="#9B6AFF" stop-opacity="0.331884"/>
<stop offset="0.666667" stop-color="#9B6AFF" stop-opacity="0.231775"/>
<stop offset="0.733333" stop-color="#9B6AFF" stop-opacity="0.147411"/>
<stop offset="0.8" stop-color="#9B6AFF" stop-opacity="0.0816599"/>
<stop offset="0.866667" stop-color="#9B6AFF" stop-opacity="0.03551"/>
<stop offset="0.933333" stop-color="#9B6AFF" stop-opacity="0.01"/>
<stop offset="1" stop-color="#9B6AFF" stop-opacity="0"/>
</linearGradient>
<linearGradient id="paint11_linear_3306_58662" x1="1307" y1="1022" x2="1277" y2="1022" gradientUnits="userSpaceOnUse">
<stop stop-color="#9B6AFF"/>
<stop offset="0.0666667" stop-color="#9B6AFF" stop-opacity="0.991353"/>
<stop offset="0.133333" stop-color="#9B6AFF" stop-opacity="0.96449"/>
<stop offset="0.2" stop-color="#9B6AFF" stop-opacity="0.91834"/>
<stop offset="0.266667" stop-color="#9B6AFF" stop-opacity="0.852589"/>
<stop offset="0.333333" stop-color="#9B6AFF" stop-opacity="0.768225"/>
<stop offset="0.4" stop-color="#9B6AFF" stop-opacity="0.668116"/>
<stop offset="0.466667" stop-color="#9B6AFF" stop-opacity="0.557309"/>
<stop offset="0.533333" stop-color="#9B6AFF" stop-opacity="0.442691"/>
<stop offset="0.6" stop-color="#9B6AFF" stop-opacity="0.331884"/>
<stop offset="0.666667" stop-color="#9B6AFF" stop-opacity="0.231775"/>
<stop offset="0.733333" stop-color="#9B6AFF" stop-opacity="0.147411"/>
<stop offset="0.8" stop-color="#9B6AFF" stop-opacity="0.0816599"/>
<stop offset="0.866667" stop-color="#9B6AFF" stop-opacity="0.03551"/>
<stop offset="0.933333" stop-color="#9B6AFF" stop-opacity="0.01"/>
<stop offset="1" stop-color="#9B6AFF" stop-opacity="0"/>
</linearGradient>
<clipPath id="clip0_3306_58662">
<rect width="1440" height="1460" fill="white"/>
</clipPath>
</defs>
</svg>
