<svg id="e03egIqCN161" xmlns="http://www.w3.org/2000/svg" xmlns:xlink="http://www.w3.org/1999/xlink" viewBox="0 0 1440 1410" shape-rendering="geometricPrecision" text-rendering="geometricPrecision"><defs><linearGradient id="e03egIqCN165-fill" x1="221.4" y1="421.75" x2="1260" y2="406" spreadMethod="pad" gradientUnits="userSpaceOnUse" gradientTransform="translate(0 0)"><stop id="e03egIqCN165-fill-0" offset="0%" stop-color="#4c249f"/><stop id="e03egIqCN165-fill-1" offset="100%" stop-color="#6436c0"/></linearGradient><linearGradient id="e03egIqCN166-fill" x1="72" y1="419.95" x2="1711.35" y2="407.8" spreadMethod="pad" gradientUnits="userSpaceOnUse" gradientTransform="translate(0 0)"><stop id="e03egIqCN166-fill-0" offset="0%" stop-color="rgba(152,104,250,0)"/><stop id="e03egIqCN166-fill-1" offset="80.6355%" stop-color="#46248c"/></linearGradient><linearGradient id="e03egIqCN167-fill" x1="967.451" y1="978.222" x2="419.434" y2="960.045" spreadMethod="pad" gradientUnits="userSpaceOnUse" gradientTransform="translate(0 0)"><stop id="e03egIqCN167-fill-0" offset="0%" stop-color="#4c249f"/><stop id="e03egIqCN167-fill-1" offset="100%" stop-color="rgba(76,36,159,0)"/></linearGradient><linearGradient id="e03egIqCN1622-fill" x1="370.802" y1="1017.42" x2="-152.226" y2="1011.71" spreadMethod="pad" gradientUnits="userSpaceOnUse" gradientTransform="translate(0 0)"><stop id="e03egIqCN1622-fill-0" offset="0%" stop-color="rgba(24,7,61,0)"/><stop id="e03egIqCN1622-fill-1" offset="80.7292%" stop-color="#18073d"/></linearGradient><linearGradient id="e03egIqCN1624-fill" x1="653.739" y1="1456.3" x2="1065.47" y2="1047.53" spreadMethod="pad" gradientUnits="userSpaceOnUse" gradientTransform="translate(0 0)"><stop id="e03egIqCN1624-fill-0" offset="0%" stop-color="rgba(33,6,78,0)"/><stop id="e03egIqCN1624-fill-1" offset="89.5863%" stop-color="#3b137d"/></linearGradient><linearGradient id="e03egIqCN1625-fill" x1="-59.1933" y1="1142.7" x2="548.927" y2="1162.84" spreadMethod="pad" gradientUnits="userSpaceOnUse" gradientTransform="translate(0 0)"><stop id="e03egIqCN1625-fill-0" offset="0%" stop-color="#4c249f"/><stop id="e03egIqCN1625-fill-1" offset="100%" stop-color="rgba(76,36,159,0)"/></linearGradient><linearGradient id="e03egIqCN1629-fill" x1="27" y1="5.4" x2="0" y2="5.4" spreadMethod="pad" gradientUnits="userSpaceOnUse" gradientTransform="translate(0 0)"><stop id="e03egIqCN1629-fill-0" offset="0%" stop-color="#9b6aff"/><stop id="e03egIqCN1629-fill-1" offset="6.66667%" stop-color="rgba(155,106,255,0.991353)"/><stop id="e03egIqCN1629-fill-2" offset="13.3333%" stop-color="rgba(155,106,255,0.96449)"/><stop id="e03egIqCN1629-fill-3" offset="20%" stop-color="rgba(155,106,255,0.91834)"/><stop id="e03egIqCN1629-fill-4" offset="26.6667%" stop-color="rgba(155,106,255,0.852589)"/><stop id="e03egIqCN1629-fill-5" offset="33.3333%" stop-color="rgba(155,106,255,0.768225)"/><stop id="e03egIqCN1629-fill-6" offset="40%" stop-color="rgba(155,106,255,0.668116)"/><stop id="e03egIqCN1629-fill-7" offset="46.6667%" stop-color="rgba(155,106,255,0.557309)"/><stop id="e03egIqCN1629-fill-8" offset="53.3333%" stop-color="rgba(155,106,255,0.442691)"/><stop id="e03egIqCN1629-fill-9" offset="60%" stop-color="rgba(155,106,255,0.331884)"/><stop id="e03egIqCN1629-fill-10" offset="66.6667%" stop-color="rgba(155,106,255,0.231775)"/><stop id="e03egIqCN1629-fill-11" offset="73.3333%" stop-color="rgba(155,106,255,0.147411)"/><stop id="e03egIqCN1629-fill-12" offset="80%" stop-color="rgba(155,106,255,0.0816599)"/><stop id="e03egIqCN1629-fill-13" offset="86.6667%" stop-color="rgba(155,106,255,0.03551)"/><stop id="e03egIqCN1629-fill-14" offset="93.3333%" stop-color="rgba(155,106,255,0.01)"/><stop id="e03egIqCN1629-fill-15" offset="100%" stop-color="rgba(155,106,255,0)"/></linearGradient><linearGradient id="e03egIqCN1631-fill" x1="27" y1="5.4" x2="0" y2="5.4" spreadMethod="pad" gradientUnits="userSpaceOnUse" gradientTransform="translate(0 0)"><stop id="e03egIqCN1631-fill-0" offset="0%" stop-color="#9b6aff"/><stop id="e03egIqCN1631-fill-1" offset="6.66667%" stop-color="rgba(155,106,255,0.991353)"/><stop id="e03egIqCN1631-fill-2" offset="13.3333%" stop-color="rgba(155,106,255,0.96449)"/><stop id="e03egIqCN1631-fill-3" offset="20%" stop-color="rgba(155,106,255,0.91834)"/><stop id="e03egIqCN1631-fill-4" offset="26.6667%" stop-color="rgba(155,106,255,0.852589)"/><stop id="e03egIqCN1631-fill-5" offset="33.3333%" stop-color="rgba(155,106,255,0.768225)"/><stop id="e03egIqCN1631-fill-6" offset="40%" stop-color="rgba(155,106,255,0.668116)"/><stop id="e03egIqCN1631-fill-7" offset="46.6667%" stop-color="rgba(155,106,255,0.557309)"/><stop id="e03egIqCN1631-fill-8" offset="53.3333%" stop-color="rgba(155,106,255,0.442691)"/><stop id="e03egIqCN1631-fill-9" offset="60%" stop-color="rgba(155,106,255,0.331884)"/><stop id="e03egIqCN1631-fill-10" offset="66.6667%" stop-color="rgba(155,106,255,0.231775)"/><stop id="e03egIqCN1631-fill-11" offset="73.3333%" stop-color="rgba(155,106,255,0.147411)"/><stop id="e03egIqCN1631-fill-12" offset="80%" stop-color="rgba(155,106,255,0.0816599)"/><stop id="e03egIqCN1631-fill-13" offset="86.6667%" stop-color="rgba(155,106,255,0.03551)"/><stop id="e03egIqCN1631-fill-14" offset="93.3333%" stop-color="rgba(155,106,255,0.01)"/><stop id="e03egIqCN1631-fill-15" offset="100%" stop-color="rgba(155,106,255,0)"/></linearGradient><linearGradient id="e03egIqCN1633-fill" x1="27" y1="5.4" x2="0" y2="5.4" spreadMethod="pad" gradientUnits="userSpaceOnUse" gradientTransform="translate(0 0)"><stop id="e03egIqCN1633-fill-0" offset="0%" stop-color="#9b6aff"/><stop id="e03egIqCN1633-fill-1" offset="6.66667%" stop-color="rgba(155,106,255,0.991353)"/><stop id="e03egIqCN1633-fill-2" offset="13.3333%" stop-color="rgba(155,106,255,0.96449)"/><stop id="e03egIqCN1633-fill-3" offset="20%" stop-color="rgba(155,106,255,0.91834)"/><stop id="e03egIqCN1633-fill-4" offset="26.6667%" stop-color="rgba(155,106,255,0.852589)"/><stop id="e03egIqCN1633-fill-5" offset="33.3333%" stop-color="rgba(155,106,255,0.768225)"/><stop id="e03egIqCN1633-fill-6" offset="40%" stop-color="rgba(155,106,255,0.668116)"/><stop id="e03egIqCN1633-fill-7" offset="46.6667%" stop-color="rgba(155,106,255,0.557309)"/><stop id="e03egIqCN1633-fill-8" offset="53.3333%" stop-color="rgba(155,106,255,0.442691)"/><stop id="e03egIqCN1633-fill-9" offset="60%" stop-color="rgba(155,106,255,0.331884)"/><stop id="e03egIqCN1633-fill-10" offset="66.6667%" stop-color="rgba(155,106,255,0.231775)"/><stop id="e03egIqCN1633-fill-11" offset="73.3333%" stop-color="rgba(155,106,255,0.147411)"/><stop id="e03egIqCN1633-fill-12" offset="80%" stop-color="rgba(155,106,255,0.0816599)"/><stop id="e03egIqCN1633-fill-13" offset="86.6667%" stop-color="rgba(155,106,255,0.03551)"/><stop id="e03egIqCN1633-fill-14" offset="93.3333%" stop-color="rgba(155,106,255,0.01)"/><stop id="e03egIqCN1633-fill-15" offset="100%" stop-color="rgba(155,106,255,0)"/></linearGradient><linearGradient id="e03egIqCN1646-fill" x1="46.5782" y1="338.602" x2="32.9026" y2="346.832" spreadMethod="pad" gradientUnits="userSpaceOnUse" gradientTransform="translate(0 0)"><stop id="e03egIqCN1646-fill-0" offset="0%" stop-color="#9b6aff"/><stop id="e03egIqCN1646-fill-1" offset="6.66667%" stop-color="rgba(155,106,255,0.991353)"/><stop id="e03egIqCN1646-fill-2" offset="13.3333%" stop-color="rgba(155,106,255,0.96449)"/><stop id="e03egIqCN1646-fill-3" offset="20%" stop-color="rgba(155,106,255,0.91834)"/><stop id="e03egIqCN1646-fill-4" offset="26.6667%" stop-color="rgba(155,106,255,0.852589)"/><stop id="e03egIqCN1646-fill-5" offset="33.3333%" stop-color="rgba(155,106,255,0.768225)"/><stop id="e03egIqCN1646-fill-6" offset="40%" stop-color="rgba(155,106,255,0.668116)"/><stop id="e03egIqCN1646-fill-7" offset="46.6667%" stop-color="rgba(155,106,255,0.557309)"/><stop id="e03egIqCN1646-fill-8" offset="53.3333%" stop-color="rgba(155,106,255,0.442691)"/><stop id="e03egIqCN1646-fill-9" offset="60%" stop-color="rgba(155,106,255,0.331884)"/><stop id="e03egIqCN1646-fill-10" offset="66.6667%" stop-color="rgba(155,106,255,0.231775)"/><stop id="e03egIqCN1646-fill-11" offset="73.3333%" stop-color="rgba(155,106,255,0.147411)"/><stop id="e03egIqCN1646-fill-12" offset="80%" stop-color="rgba(155,106,255,0.0816599)"/><stop id="e03egIqCN1646-fill-13" offset="86.6667%" stop-color="rgba(155,106,255,0.03551)"/><stop id="e03egIqCN1646-fill-14" offset="93.3333%" stop-color="rgba(155,106,255,0.01)"/><stop id="e03egIqCN1646-fill-15" offset="100%" stop-color="rgba(155,106,255,0)"/></linearGradient><linearGradient id="e03egIqCN1649-fill" x1="27.0606" y1="350.094" x2="-11.2472" y2="377.2" spreadMethod="pad" gradientUnits="userSpaceOnUse" gradientTransform="translate(0 0)"><stop id="e03egIqCN1649-fill-0" offset="0%" stop-color="#9b6aff"/><stop id="e03egIqCN1649-fill-1" offset="6.66667%" stop-color="rgba(155,106,255,0.991353)"/><stop id="e03egIqCN1649-fill-2" offset="13.3333%" stop-color="rgba(155,106,255,0.96449)"/><stop id="e03egIqCN1649-fill-3" offset="20%" stop-color="rgba(155,106,255,0.91834)"/><stop id="e03egIqCN1649-fill-4" offset="26.6667%" stop-color="rgba(155,106,255,0.852589)"/><stop id="e03egIqCN1649-fill-5" offset="33.3333%" stop-color="rgba(155,106,255,0.768225)"/><stop id="e03egIqCN1649-fill-6" offset="40%" stop-color="rgba(155,106,255,0.668116)"/><stop id="e03egIqCN1649-fill-7" offset="46.6667%" stop-color="rgba(155,106,255,0.557309)"/><stop id="e03egIqCN1649-fill-8" offset="53.3333%" stop-color="rgba(155,106,255,0.442691)"/><stop id="e03egIqCN1649-fill-9" offset="60%" stop-color="rgba(155,106,255,0.331884)"/><stop id="e03egIqCN1649-fill-10" offset="66.6667%" stop-color="rgba(155,106,255,0.231775)"/><stop id="e03egIqCN1649-fill-11" offset="73.3333%" stop-color="rgba(155,106,255,0.147411)"/><stop id="e03egIqCN1649-fill-12" offset="80%" stop-color="rgba(155,106,255,0.0816599)"/><stop id="e03egIqCN1649-fill-13" offset="86.6667%" stop-color="rgba(155,106,255,0.03551)"/><stop id="e03egIqCN1649-fill-14" offset="93.3333%" stop-color="rgba(155,106,255,0.01)"/><stop id="e03egIqCN1649-fill-15" offset="100%" stop-color="rgba(155,106,255,0)"/></linearGradient><linearGradient id="e03egIqCN16113-fill" x1="1188" y1="334.45" x2="259.199" y2="334.45" spreadMethod="pad" gradientUnits="userSpaceOnUse" gradientTransform="translate(0 0)"><stop id="e03egIqCN16113-fill-0" offset="0%" stop-color="#21064e"/><stop id="e03egIqCN16113-fill-1" offset="6.66667%" stop-color="rgba(33,6,78,0.991353)"/><stop id="e03egIqCN16113-fill-2" offset="13.3333%" stop-color="rgba(33,6,78,0.96449)"/><stop id="e03egIqCN16113-fill-3" offset="20%" stop-color="rgba(33,6,78,0.91834)"/><stop id="e03egIqCN16113-fill-4" offset="26.6667%" stop-color="rgba(33,6,78,0.852589)"/><stop id="e03egIqCN16113-fill-5" offset="33.3333%" stop-color="rgba(33,6,78,0.768225)"/><stop id="e03egIqCN16113-fill-6" offset="40%" stop-color="rgba(33,6,78,0.668116)"/><stop id="e03egIqCN16113-fill-7" offset="46.6667%" stop-color="rgba(33,6,78,0.557309)"/><stop id="e03egIqCN16113-fill-8" offset="53.3333%" stop-color="rgba(33,6,78,0.442691)"/><stop id="e03egIqCN16113-fill-9" offset="60%" stop-color="rgba(33,6,78,0.331884)"/><stop id="e03egIqCN16113-fill-10" offset="66.6667%" stop-color="rgba(33,6,78,0.231775)"/><stop id="e03egIqCN16113-fill-11" offset="73.3333%" stop-color="rgba(33,6,78,0.147411)"/><stop id="e03egIqCN16113-fill-12" offset="80%" stop-color="rgba(33,6,78,0.0816599)"/><stop id="e03egIqCN16113-fill-13" offset="86.6667%" stop-color="rgba(33,6,78,0.03551)"/><stop id="e03egIqCN16113-fill-14" offset="93.3333%" stop-color="rgba(33,6,78,0.01)"/><stop id="e03egIqCN16113-fill-15" offset="100%" stop-color="rgba(33,6,78,0)"/></linearGradient></defs><g clip-path="url(#e03egIqCN16115)"><g><rect width="1440" height="1989" rx="0" ry="0" fill="#21064e"/><path d="M0,261.55h241.2c9.941,0,18,8.059,18,18v71.1h928.8v-71.1c0-9.941,8.06-18,18-18h162v794.7h-140.4-39.6-928.8-24.3-234.9v-794.7Z" clip-rule="evenodd" fill="url(#e03egIqCN165-fill)" fill-rule="evenodd"/><path d="M0,261.55h241.2c9.941,0,18,8.059,18,18v71.1h928.8v-71.1c0-9.941,8.06-18,18-18h234v794.7h-212.4-39.6-928.8-24.3-234.9v-794.7Z" clip-rule="evenodd" fill="url(#e03egIqCN166-fill)" fill-rule="evenodd"/><path d="M792.901,707.95c-191.864,0-347.4,155.939-347.4,348.3h694.799c0-192.361-155.536-348.3-347.399-348.3Z" fill="url(#e03egIqCN167-fill)"/><path d="M259.65,333.78h-183.15c-59.6467,0-108,48.353-108,108v15.07" fill="none" stroke="#21064e" stroke-width="27"/><path d="M259.199,284.95h928.801v63c0,19.882-16.12,36-36,36h-856.801c-19.882,0-36-16.118-36-36v-63Z" fill="#36157d"/><path d="M1197.84,256.15l.43-1.211l1.16.552-.55-1.161l1.21-.43-1.21-.431.55-1.16-1.16.551-.43-1.21-.43,1.21-1.16-.551.55,1.16-1.21.431l1.21.43-.55,1.161l1.16-.552.43,1.211Z" fill="#b18cff" fill-opacity="0.25"/><path d="M1191.54,248.05l.61-1.695l1.62.772-.77-1.624l1.69-.603-1.69-.603.77-1.625-1.62.773-.61-1.695-.6,1.695-1.62-.773.77,1.625-1.7.603l1.7.603-.77,1.624l1.62-.772.6,1.695Z" fill="#b18cff" fill-opacity="0.4"/><path d="M1182.54,239.95l.95-2.664l2.55,1.214-1.21-2.553l2.66-.947-2.66-.947l1.21-2.553-2.55,1.213-.95-2.663-.94,2.663-2.56-1.213l1.22,2.553-2.67.947l2.67.947-1.22,2.553l2.56-1.214.94,2.664Z" fill="#b18cff" fill-opacity="0.6"/><path d="M1124.8,192.943c-.01-.017-.02-.034-.03-.05-3.34-4.613-9.78-5.647-14.4-2.311-4.61,3.336-5.64,9.779-2.31,14.392.02.016.03.033.04.05l16.7-12.081Z" clip-rule="evenodd" fill="#ffb636" fill-rule="evenodd"/><circle r="2.41856" transform="matrix(.995427-.095525 0.095525 0.995427 1124.379964 188.510541)" fill="#36147d"/><path d="M1122.02,176.995c-.04.046-.07.093-.1.14-9.41,13.636-5.99,32.321,7.65,41.734c13.63,9.413,32.32,5.99,41.73-7.646.03-.047.06-.094.1-.141l-49.38-34.087Z" clip-rule="evenodd" fill="#9b6aff" fill-rule="evenodd"/><circle r="3.6" transform="matrix(.995427-.095525 0.095525 0.995427 1125.670008 189.573452)" fill="#21064e"/><rect width="5.18263" height="18.4271" rx="0" ry="0" transform="matrix(.74214-.670245 0.670245 0.74214 1154.259887 213.257603)" fill="#9b6aff"/><path d="M1170.82,223.153c-.03-.027-.05-.053-.08-.08-2.43-2.664-6.35-3.048-8.74-.858-2.4,2.191-2.37,6.126.06,8.79.03.027.05.053.07.079l8.69-7.931Z" clip-rule="evenodd" fill="#ffb636" fill-rule="evenodd"/><path d="M1164.06,198.883c-.01.027-.01.054-.02.081-1.3,7.76-8.64,12.996-16.4,11.695s-13-8.647-11.7-16.407c.01-.027.01-.054.02-.081l28.1,4.712Z" clip-rule="evenodd" fill="#8050e3" fill-rule="evenodd"/><path d="M370.802,1056.25c0-64.209-25.507-125.788-70.91-171.19-45.402-45.403-106.982-70.91-171.19-70.91-64.2093,0-125.78841,25.507-171.191,70.91-45.4025,45.402-70.909,106.981-70.909,171.19h242.1h242.1Z" fill="#4c249f"/><path d="M370.802,1056.25c0-64.209-25.507-125.788-70.91-171.19-45.402-45.403-106.982-70.91-171.19-70.91-64.2093,0-125.78841,25.507-171.191,70.91-45.4025,45.402-70.909,106.981-70.909,171.19h242.1h242.1Z" fill="#4c249f"/><path d="M370.802,1056.25c0-31.79-6.263-63.275-18.429-92.648-12.167-29.372-30-56.061-52.481-78.542s-49.17-40.314-78.543-52.481-60.854-18.429-92.647-18.429c-31.7935,0-63.2752,6.262-92.6481,18.429s-56.0618,30-78.5429,52.481-40.314,49.17-52.4807,78.543c-12.1663,29.372-18.4283,60.857-18.4283,92.647h242.1h242.1Z" fill="url(#e03egIqCN1622-fill)"/><path d="M1046.7,932.95c0-59.647,48.36-108,108-108h382.5v231.3h-490.5v-123.3Z" fill="#36147d"/><path d="M771.301,1164.25c0-59.65,48.353-108,108-108h560.699v415.8h-668.699v-307.8Z" fill="url(#e03egIqCN1624-fill)" fill-opacity="0.51"/><path d="M134.5,1443c212.906,0,385.5-173.27,385.5-387h-771c0,213.73,172.5943,387,385.5,387Z" opacity="0.5" fill="url(#e03egIqCN1625-fill)"/><rect width="62.1" height="14.4" rx="7.2" ry="7.2" transform="matrix(0-1 1 0 1357.7 1008.55)" fill="#4d25a0"/><rect width="62.1" height="14.4" rx="7.2" ry="7.2" transform="matrix(0-1 1 0 1307.3 1009.45)" fill="#4d25a0"/><rect width="62.1" height="14.4" rx="7.2" ry="7.2" transform="matrix(0-1 1 0 1256.9 1008.55)" fill="#4d25a0"/><rect width="27" height="14.4" rx="0" ry="0" transform="matrix(0 1-1 0 1372.09 957.25)" fill="url(#e03egIqCN1629-fill)" fill-opacity="0.46"/><circle r="7.2" transform="matrix(0 1-1 0 1364.89 984.25)" fill="#ffb636"/><rect width="27" height="14.4" rx="0" ry="0" transform="matrix(0-1 1 0 1307.3 981.55)" fill="url(#e03egIqCN1631-fill)" fill-opacity="0.46"/><circle r="7.2" transform="matrix(0-1 1 0 1314.5 954.55)" fill="#9b6aff"/><rect width="27" height="14.4" rx="0" ry="0" transform="matrix(0 1-1 0 1271.3 974.35)" fill="url(#e03egIqCN1633-fill)" fill-opacity="0.46"/><circle r="7.2" transform="matrix(0 1-1 0 1264.1 1001.35)" fill="#35f0d0"/><rect width="67.7491" height="19.1292" rx="9.56458" ry="9.56458" transform="translate(1025.75 276.458)" fill="#fa48e8"/><rect width="54.2482" height="7.57197" rx="3.78599" ry="3.78599" transform="matrix(-.5 0.866025-.866025-.5 1058.124461 243.521145)" fill="#fa48e8"/><path d="M1058.42,240.306c0-1.926-.38-3.834-1.13-5.613-.74-1.78-1.82-3.396-3.19-4.758s-3-2.443-4.79-3.18-3.71-1.116-5.64-1.116c-1.94,0-3.86.379-5.65,1.116s-3.41,1.818-4.78,3.18-2.46,2.978-3.2,4.758c-.74,1.779-1.12,3.687-1.12,5.613h14.75h14.75Z" fill="#fa48e8"/><path d="M1049.82,250.91c1.46-.392,2.83-1.069,4.03-1.991c1.21-.922,2.21-2.072,2.97-3.384s1.25-2.76,1.45-4.262.1-3.028-.3-4.492c-.39-1.463-1.06-2.835-1.99-4.036-.92-1.202-2.07-2.211-3.38-2.968-1.31-.758-2.76-1.249-4.26-1.447-1.51-.198-3.03-.098-4.49.294l2.98,11.143l2.99,11.143Z" fill="#fa48e8"/><circle r="4.61436" transform="translate(1042.27 229.265)" fill="#f5f0ff"/><circle r="1.48319" transform="translate(1043.74 229.264)"/><g mask="url(#e03egIqCN1644)"><g><path d="M1058.42,240.306c0-1.926-.38-3.833-1.13-5.613-.74-1.779-1.82-3.396-3.19-4.758s-3-2.443-4.79-3.18-3.71-1.116-5.64-1.116c-1.94,0-3.86.379-5.65,1.116s-3.41,1.818-4.78,3.18-2.46,2.979-3.2,4.758c-.74,1.78-1.12,3.687-1.12,5.613h14.75h14.75Z" fill="#770f6d"/></g><mask id="e03egIqCN1644" mask-type="alpha" x="-150%" y="-150%" height="400%" width="400%"><path d="M1030.48,230.748l7.78,12.359h-15.56l7.78-12.359Z" fill="#d9d9d9"/></mask></g><path d="M4.51164,387.622L-23.2426,470.393l-13.6529-4.578l27.75423-82.771c8.654283-25.81,29.30987-44.212,53.67327-51.078l3.8359,13.881c-19.9084,5.631-36.7824,20.679-43.85626,41.775Z" fill="url(#e03egIqCN1646-fill)" fill-opacity="0.46"/><circle r="7.2" transform="matrix(.948119 0.317917-.317917 0.948119 46.432008 339.029005)" fill="#ffb636"/><circle r="7.2" transform="matrix(.948119 0.317917-.317917 0.948119 275.927732 369.665024)" fill="#ffb636"/><path d="M-2.24835,383.5L-35.5484,463.15l-16.1999-7.65l38.6999-80.55c5.95456-17.758,20.93666-25.25,35.5527-34.65l8.1,11.25c-12.3586,7.68-27.86545,17.077-32.85265,31.95Z" fill="url(#e03egIqCN1649-fill)" fill-opacity="0.46"/><circle r="7.2" transform="matrix(.948119 0.317917-.317917 0.948119 25.318649 346.265017)" fill="#35f0d0"/><circle r="7.2" transform="translate(1166.4 370.45)" fill="#35f0d0"/><circle r="7.2" transform="translate(288.899 376.75)" fill="#9b6aff"/><circle r="7.2" transform="translate(303.298 376.75)" fill="#35f0d0"/><circle r="7.2" transform="translate(317.7 376.75)" fill="#ffb636"/><circle r="7.2" transform="translate(332.098 376.75)" fill="#9b6aff"/><circle r="7.2" transform="translate(346.497 376.75)" fill="#35f0d0"/><circle r="7.2" transform="translate(360.899 376.75)" fill="#ffb636"/><circle r="7.2" transform="translate(375.298 376.75)" fill="#9b6aff"/><circle r="7.2" transform="translate(389.696 376.75)" fill="#35f0d0"/><circle r="7.2" transform="translate(404.098 376.75)" fill="#ffb636"/><circle r="7.2" transform="translate(418.501 376.75)" fill="#9b6aff"/><circle r="7.2" transform="translate(432.899 376.75)" fill="#35f0d0"/><circle r="7.2" transform="translate(447.302 376.75)" fill="#ffb636"/><circle r="7.2" transform="translate(461.7 376.75)" fill="#9b6aff"/><circle r="7.2" transform="translate(476.098 376.75)" fill="#35f0d0"/><circle r="7.2" transform="translate(490.501 376.75)" fill="#ffb636"/><circle r="7.2" transform="translate(504.899 376.75)" fill="#9b6aff"/><circle r="7.2" transform="translate(519.298 376.75)" fill="#35f0d0"/><circle r="7.2" transform="translate(533.7 376.75)" fill="#ffb636"/><circle r="7.2" transform="translate(548.098 376.75)" fill="#9b6aff"/><circle r="7.2" transform="translate(562.497 376.75)" fill="#35f0d0"/><circle r="7.2" transform="translate(576.899 376.75)" fill="#ffb636"/><circle r="7.2" transform="translate(591.298 376.75)" fill="#9b6aff"/><circle r="7.2" transform="translate(605.696 376.75)" fill="#35f0d0"/><circle r="7.2" transform="translate(620.098 376.75)" fill="#ffb636"/><circle r="7.2" transform="translate(634.501 376.75)" fill="#9b6aff"/><circle r="7.2" transform="translate(648.899 376.75)" fill="#35f0d0"/><circle r="7.2" transform="translate(663.302 376.75)" fill="#ffb636"/><circle r="7.2" transform="translate(677.7 376.75)" fill="#9b6aff"/><circle r="7.2" transform="translate(692.098 376.75)" fill="#35f0d0"/><circle r="7.2" transform="translate(706.501 376.75)" fill="#ffb636"/><circle r="7.2" transform="translate(720.899 376.75)" fill="#9b6aff"/><circle r="7.2" transform="translate(735.298 376.75)" fill="#35f0d0"/><circle r="7.2" transform="translate(749.7 376.75)" fill="#ffb636"/><circle r="7.2" transform="translate(764.098 376.75)" fill="#9b6aff"/><circle r="7.2" transform="translate(778.497 376.75)" fill="#35f0d0"/><circle r="7.2" transform="translate(792.899 376.75)" fill="#ffb636"/><circle r="7.2" transform="translate(807.298 376.75)" fill="#9b6aff"/><circle r="7.2" transform="translate(821.696 376.75)" fill="#35f0d0"/><circle r="7.2" transform="translate(836.098 376.75)" fill="#ffb636"/><circle r="7.2" transform="translate(850.501 376.75)" fill="#9b6aff"/><circle r="7.2" transform="translate(864.899 376.75)" fill="#35f0d0"/><circle r="7.2" transform="translate(879.302 376.75)" fill="#ffb636"/><circle r="7.2" transform="translate(893.7 376.75)" fill="#9b6aff"/><circle r="7.2" transform="translate(908.102 376.75)" fill="#35f0d0"/><circle r="7.2" transform="translate(922.501 376.75)" fill="#ffb636"/><circle r="7.2" transform="translate(936.899 376.75)" fill="#9b6aff"/><circle r="7.2" transform="translate(951.302 376.75)" fill="#35f0d0"/><circle r="7.2" transform="translate(965.7 376.75)" fill="#ffb636"/><circle r="7.2" transform="translate(980.102 376.75)" fill="#9b6aff"/><circle r="7.2" transform="translate(994.501 376.75)" fill="#35f0d0"/><circle r="7.2" transform="translate(1008.9 376.75)" fill="#ffb636"/><circle r="7.2" transform="translate(1023.3 376.75)" fill="#9b6aff"/><circle r="7.2" transform="translate(1037.7 376.75)" fill="#35f0d0"/><circle r="7.2" transform="translate(1052.1 376.75)" fill="#ffb636"/><circle r="7.2" transform="translate(1066.5 376.75)" fill="#9b6aff"/><circle r="7.2" transform="translate(1080.9 376.75)" fill="#35f0d0"/><circle r="7.2" transform="translate(1095.3 376.75)" fill="#ffb636"/><circle r="7.2" transform="translate(1109.7 376.75)" fill="#9b6aff"/><circle r="7.2" transform="translate(1124.1 376.75)" fill="#35f0d0"/><circle r="7.2" transform="translate(1138.5 376.75)" fill="#ffb636"/><circle r="7.2" transform="translate(1152.9 376.75)" fill="#9b6aff"/><path d="M259.199,284.95h928.801v63c0,19.882-16.12,36-36,36h-856.801c-19.882,0-36-16.118-36-36v-63Z" fill="url(#e03egIqCN16113-fill)" fill-opacity="0.5"/><path d="M396.071,212.622l13.917,20.335l18.556-15.937-4.357,24.235l24.358,2.031-20.079,13.937l15.891,18.809-24.039-4.523-1.885,24.569-13.918-20.335-18.556,15.937l4.357-24.234-24.358-2.031l20.079-13.938-15.89-18.809l24.039,4.523l1.885-24.569Z" fill="#9b6aff"/></g><clipPath id="e03egIqCN16115"><rect width="1440" height="1989" rx="0" ry="0" fill="#fff"/></clipPath></g></svg>
