<svg width="1440" height="1036" viewBox="0 0 1440 1036" fill="none" xmlns="http://www.w3.org/2000/svg">
<g clip-path="url(#clip0_3321_34273)">
<rect width="1440" height="1036" fill="url(#paint0_linear_3321_34273)"/>
<path d="M368.496 57.9997C-0.153989 57.9997 -299.004 357.969 -299.004 728L1036 728C1036 357.969 737.146 57.9997 368.496 57.9997Z" fill="#36147D" fill-opacity="0.27"/>
<path d="M1480 -90.0003C1254.67 -90.0002 1072 93.5631 1072 320L1888 320C1888 93.563 1705.33 -90.0003 1480 -90.0003Z" fill="#36147D" fill-opacity="0.27"/>
<path d="M1659 320H980C913.726 320 860 373.726 860 440V1346H1659V320Z" fill="#4C249F"/>
<path d="M859 440C859 373.726 912.726 320 979 320L1659 320L1659 1346H859L859 440Z" fill="url(#paint1_linear_3321_34273)" fill-opacity="0.5"/>
<path d="M1715 564C1557.59 564 1430 692.047 1430 850L2000 850C2000 692.047 1872.4 564 1715 564Z" fill="#36147D"/>
<path d="M288.996 730H1118C1184.27 730 1238 783.726 1238 850V1346H288.996V730Z" fill="#36147D"/>
<path d="M1238 850C1238 783.726 1184.27 730 1118 730H288.996V1347H1238V850Z" fill="url(#paint2_linear_3321_34273)" fill-opacity="0.51"/>
<path d="M73 438V876.282C73 885.118 80.1634 892.282 89 892.282H159C167.837 892.282 175 899.445 175 908.282V996" stroke="url(#paint3_linear_3321_34273)" stroke-width="16"/>
<rect x="81" y="706" width="63" height="16" transform="rotate(90 81 706)" fill="url(#paint4_linear_3321_34273)" fill-opacity="0.46"/>
<circle cx="73" cy="769" r="8" transform="rotate(90 73 769)" fill="#35F0D0"/>
<path d="M2 1015.99L1440 1016" stroke="#21064E" stroke-width="40"/>
<rect width="128" height="16" transform="matrix(1 -8.74228e-08 -8.74228e-08 -1 342 1024)" fill="url(#paint5_linear_3321_34273)" fill-opacity="0.46"/>
<circle cx="8" cy="8" r="8" transform="matrix(1 -8.74228e-08 -8.74228e-08 -1 462 1024)" fill="#FFB636"/>
<rect width="98" height="16" transform="matrix(1 -8.74228e-08 -8.74228e-08 -1 2 1024)" fill="url(#paint6_linear_3321_34273)" fill-opacity="0.46"/>
<circle cx="8" cy="8" r="8" transform="matrix(1 -8.74228e-08 -8.74228e-08 -1 92 1024)" fill="#9B6AFF"/>
<line x1="1114.94" y1="795.479" x2="1114.94" y2="850.477" stroke="white" stroke-width="2.5555"/>
<path d="M1115 789.479L1115 813.478" stroke="white" stroke-width="2.5555" stroke-linecap="round"/>
<path d="M1115 717.482L1115 741.481" stroke="white" stroke-width="2.5555" stroke-linecap="round"/>
<path d="M1139 765.48L1163 765.48" stroke="white" stroke-width="2.5555" stroke-linecap="round"/>
<path d="M1067 765.48L1091 765.48" stroke="white" stroke-width="2.5555" stroke-linecap="round"/>
<path d="M1131.96 782.45L1148.93 799.42" stroke="white" stroke-width="2.5555" stroke-linecap="round"/>
<path d="M1081.06 731.54L1098.03 748.51" stroke="white" stroke-width="2.5555" stroke-linecap="round"/>
<path d="M1131.96 748.51L1148.93 731.54" stroke="white" stroke-width="2.5555" stroke-linecap="round"/>
<path d="M1081.06 799.42L1098.03 782.45" stroke="white" stroke-width="2.5555" stroke-linecap="round"/>
<circle cx="1115" cy="765.48" r="13.9995" fill="#FFB636"/>
<circle cx="1101" cy="731.481" r="2.9999" fill="#35F0D0"/>
<circle cx="1129" cy="731.481" r="2.9999" fill="#9B6AFF"/>
<circle cx="1149" cy="751.481" r="2.9999" fill="#35F0D0"/>
<circle cx="1081" cy="751.481" r="2.9999" fill="#9B6AFF"/>
<circle cx="1149" cy="778.479" r="2.9999" fill="#9B6AFF"/>
<circle cx="1081" cy="778.479" r="2.9999" fill="#35F0D0"/>
<circle cx="1129" cy="798.479" r="2.9999" fill="#35F0D0"/>
<circle cx="1101" cy="798.479" r="2.9999" fill="#9B6AFF"/>
<path d="M1727 850H1080C1013.72 850 959.996 903.726 959.996 970V1346H1727V850Z" fill="#6538C1"/>
<path d="M959.996 970C959.996 903.726 1013.72 850 1080 850H1727V1346H959.996V970Z" fill="url(#paint7_linear_3321_34273)" fill-opacity="0.51"/>
<path fill-rule="evenodd" clip-rule="evenodd" d="M243.883 319.698C243.88 319.672 243.876 319.645 243.873 319.618C242.957 311.916 248.458 304.93 256.16 304.014C263.862 303.098 270.848 308.599 271.764 316.301C271.767 316.328 271.77 316.355 271.773 316.382L243.883 319.698Z" fill="#FFB636"/>
<circle cx="3.29532" cy="3.29532" r="3.29532" transform="matrix(-0.796767 0.604287 0.604287 0.796767 240.848 310.253)" fill="#36147D"/>
<path fill-rule="evenodd" clip-rule="evenodd" d="M231.948 301.15C232.024 301.166 232.1 301.183 232.177 301.201C254.199 306.173 268.02 328.056 263.048 350.077C258.076 372.099 236.193 385.921 214.171 380.949C214.095 380.931 214.019 380.914 213.942 380.896L231.948 301.15Z" fill="#9B6AFF"/>
<circle cx="4.07992" cy="4.07992" r="4.07992" transform="matrix(-0.796767 0.604287 0.604287 0.796767 240.848 310.253)" fill="#36147D"/>
<rect width="7.06141" height="25.1072" transform="matrix(-0.99995 0.010001 0.010001 0.99995 233.121 367.254)" fill="#9B6AFF"/>
<path fill-rule="evenodd" clip-rule="evenodd" d="M225.676 392.449C225.675 392.401 225.675 392.353 225.674 392.304C225.654 387.388 229.223 383.387 233.648 383.368C238.072 383.35 241.676 387.32 241.697 392.237C241.697 392.285 241.697 392.333 241.696 392.381L225.676 392.449Z" fill="#FFB636"/>
<path fill-rule="evenodd" clip-rule="evenodd" d="M210.035 361.896C210.065 361.919 210.094 361.941 210.123 361.964C218.592 368.538 230.787 367.003 237.361 358.534C243.935 350.066 242.399 337.871 233.931 331.297C233.901 331.274 233.872 331.251 233.842 331.229L210.035 361.896Z" fill="#8050E3"/>
<path d="M1535 320C1535 259.249 1485.75 210 1425 210C1364.25 210 1315 259.249 1315 320" stroke="white" stroke-width="2"/>
<path d="M1483 320C1483 287.967 1457.03 262 1425 262C1392.97 262 1367 287.967 1367 320" stroke="white" stroke-width="2"/>
<circle cx="1425" cy="210" r="12" transform="rotate(90 1425 210)" fill="#FFB636" stroke="#270A5B" stroke-width="8"/>
<circle cx="1345" cy="247" r="12" transform="rotate(90 1345 247)" fill="#35F0D0" stroke="#270A5B" stroke-width="8"/>
<circle cx="1383" cy="283" r="12" transform="rotate(90 1383 283)" fill="#9B6AFF" stroke="#270A5B" stroke-width="8"/>
</g>
<defs>
<linearGradient id="paint0_linear_3321_34273" x1="720" y1="0" x2="720" y2="1555" gradientUnits="userSpaceOnUse">
<stop offset="0.197917" stop-color="#21064E"/>
<stop offset="1" stop-color="#36147D"/>
</linearGradient>
<linearGradient id="paint1_linear_3321_34273" x1="1659" y1="833" x2="859" y2="833" gradientUnits="userSpaceOnUse">
<stop stop-color="#21064E"/>
<stop offset="0.0666667" stop-color="#21064E" stop-opacity="0.991353"/>
<stop offset="0.133333" stop-color="#21064E" stop-opacity="0.96449"/>
<stop offset="0.2" stop-color="#21064E" stop-opacity="0.91834"/>
<stop offset="0.266667" stop-color="#21064E" stop-opacity="0.852589"/>
<stop offset="0.333333" stop-color="#21064E" stop-opacity="0.768225"/>
<stop offset="0.4" stop-color="#21064E" stop-opacity="0.668116"/>
<stop offset="0.466667" stop-color="#21064E" stop-opacity="0.557309"/>
<stop offset="0.533333" stop-color="#21064E" stop-opacity="0.442691"/>
<stop offset="0.6" stop-color="#21064E" stop-opacity="0.331884"/>
<stop offset="0.666667" stop-color="#21064E" stop-opacity="0.231775"/>
<stop offset="0.733333" stop-color="#21064E" stop-opacity="0.147411"/>
<stop offset="0.8" stop-color="#21064E" stop-opacity="0.0816599"/>
<stop offset="0.866667" stop-color="#21064E" stop-opacity="0.03551"/>
<stop offset="0.933333" stop-color="#21064E" stop-opacity="0.01"/>
<stop offset="1" stop-color="#21064E" stop-opacity="0"/>
</linearGradient>
<linearGradient id="paint2_linear_3321_34273" x1="288.996" y1="1038.5" x2="1238" y2="1038.5" gradientUnits="userSpaceOnUse">
<stop stop-color="#21064E"/>
<stop offset="1" stop-color="#21064E" stop-opacity="0"/>
</linearGradient>
<linearGradient id="paint3_linear_3321_34273" x1="73" y1="996" x2="73" y2="438" gradientUnits="userSpaceOnUse">
<stop stop-color="#21064E"/>
<stop offset="1" stop-color="#21064E" stop-opacity="0"/>
</linearGradient>
<linearGradient id="paint4_linear_3321_34273" x1="144" y1="712" x2="81" y2="712" gradientUnits="userSpaceOnUse">
<stop stop-color="#9B6AFF"/>
<stop offset="0.0666667" stop-color="#9B6AFF" stop-opacity="0.991353"/>
<stop offset="0.133333" stop-color="#9B6AFF" stop-opacity="0.96449"/>
<stop offset="0.2" stop-color="#9B6AFF" stop-opacity="0.91834"/>
<stop offset="0.266667" stop-color="#9B6AFF" stop-opacity="0.852589"/>
<stop offset="0.333333" stop-color="#9B6AFF" stop-opacity="0.768225"/>
<stop offset="0.4" stop-color="#9B6AFF" stop-opacity="0.668116"/>
<stop offset="0.466667" stop-color="#9B6AFF" stop-opacity="0.557309"/>
<stop offset="0.533333" stop-color="#9B6AFF" stop-opacity="0.442691"/>
<stop offset="0.6" stop-color="#9B6AFF" stop-opacity="0.331884"/>
<stop offset="0.666667" stop-color="#9B6AFF" stop-opacity="0.231775"/>
<stop offset="0.733333" stop-color="#9B6AFF" stop-opacity="0.147411"/>
<stop offset="0.8" stop-color="#9B6AFF" stop-opacity="0.0816599"/>
<stop offset="0.866667" stop-color="#9B6AFF" stop-opacity="0.03551"/>
<stop offset="0.933333" stop-color="#9B6AFF" stop-opacity="0.01"/>
<stop offset="1" stop-color="#9B6AFF" stop-opacity="0"/>
</linearGradient>
<linearGradient id="paint5_linear_3321_34273" x1="128" y1="6" x2="-2.18868e-07" y2="5.99999" gradientUnits="userSpaceOnUse">
<stop stop-color="#9B6AFF"/>
<stop offset="0.0666667" stop-color="#9B6AFF" stop-opacity="0.991353"/>
<stop offset="0.133333" stop-color="#9B6AFF" stop-opacity="0.96449"/>
<stop offset="0.2" stop-color="#9B6AFF" stop-opacity="0.91834"/>
<stop offset="0.266667" stop-color="#9B6AFF" stop-opacity="0.852589"/>
<stop offset="0.333333" stop-color="#9B6AFF" stop-opacity="0.768225"/>
<stop offset="0.4" stop-color="#9B6AFF" stop-opacity="0.668116"/>
<stop offset="0.466667" stop-color="#9B6AFF" stop-opacity="0.557309"/>
<stop offset="0.533333" stop-color="#9B6AFF" stop-opacity="0.442691"/>
<stop offset="0.6" stop-color="#9B6AFF" stop-opacity="0.331884"/>
<stop offset="0.666667" stop-color="#9B6AFF" stop-opacity="0.231775"/>
<stop offset="0.733333" stop-color="#9B6AFF" stop-opacity="0.147411"/>
<stop offset="0.8" stop-color="#9B6AFF" stop-opacity="0.0816599"/>
<stop offset="0.866667" stop-color="#9B6AFF" stop-opacity="0.03551"/>
<stop offset="0.933333" stop-color="#9B6AFF" stop-opacity="0.01"/>
<stop offset="1" stop-color="#9B6AFF" stop-opacity="0"/>
</linearGradient>
<linearGradient id="paint6_linear_3321_34273" x1="98" y1="6" x2="-1.67571e-07" y2="5.99999" gradientUnits="userSpaceOnUse">
<stop stop-color="#9B6AFF"/>
<stop offset="0.0666667" stop-color="#9B6AFF" stop-opacity="0.991353"/>
<stop offset="0.133333" stop-color="#9B6AFF" stop-opacity="0.96449"/>
<stop offset="0.2" stop-color="#9B6AFF" stop-opacity="0.91834"/>
<stop offset="0.266667" stop-color="#9B6AFF" stop-opacity="0.852589"/>
<stop offset="0.333333" stop-color="#9B6AFF" stop-opacity="0.768225"/>
<stop offset="0.4" stop-color="#9B6AFF" stop-opacity="0.668116"/>
<stop offset="0.466667" stop-color="#9B6AFF" stop-opacity="0.557309"/>
<stop offset="0.533333" stop-color="#9B6AFF" stop-opacity="0.442691"/>
<stop offset="0.6" stop-color="#9B6AFF" stop-opacity="0.331884"/>
<stop offset="0.666667" stop-color="#9B6AFF" stop-opacity="0.231775"/>
<stop offset="0.733333" stop-color="#9B6AFF" stop-opacity="0.147411"/>
<stop offset="0.8" stop-color="#9B6AFF" stop-opacity="0.0816599"/>
<stop offset="0.866667" stop-color="#9B6AFF" stop-opacity="0.03551"/>
<stop offset="0.933333" stop-color="#9B6AFF" stop-opacity="0.01"/>
<stop offset="1" stop-color="#9B6AFF" stop-opacity="0"/>
</linearGradient>
<linearGradient id="paint7_linear_3321_34273" x1="1727" y1="1098" x2="959.996" y2="1098" gradientUnits="userSpaceOnUse">
<stop stop-color="#21064E"/>
<stop offset="1" stop-color="#21064E" stop-opacity="0"/>
</linearGradient>
<clipPath id="clip0_3321_34273">
<rect width="1440" height="1036" fill="white"/>
</clipPath>
</defs>
</svg>
