<svg width="1440" height="1287" viewBox="0 0 1440 1287" fill="none" xmlns="http://www.w3.org/2000/svg">
<path d="M-80.5001 -6.37156e-05C-449.15 -3.14872e-05 -748 299.969 -748 670L587 670C587 299.969 288.15 -9.5944e-05 -80.5001 -6.37156e-05Z" fill="#36147D" fill-opacity="0.27"/>
<path d="M1320 294C1164.26 294 1038 420.703 1038 577L1602 577C1602 420.703 1475.74 294 1320 294Z" fill="#36147D" fill-opacity="0.27"/>
<path d="M1444 577H1011.95C945.674 577 891.949 630.726 891.949 697V1286H1444V577Z" fill="#9B6AFF"/>
<path d="M891 697C891 630.726 944.726 577 1011 577H1444L1444 1286H891L891 697Z" fill="url(#paint0_linear_3635_34225)" fill-opacity="0.5"/>
<path d="M1429 504C1271.6 504 1144 632.047 1144 790L1714 790C1714 632.047 1586.4 504 1429 504Z" fill="#36147D"/>
<g clip-path="url(#clip0_3635_34225)">
<path d="M3 670H832C898.274 670 952 723.726 952 790V1286H3V670Z" fill="#36147D"/>
<path d="M183 849C183 750.141 102.411 670 3 670L3 1028C102.411 1028 183 947.859 183 849Z" fill="#4C249F"/>
<path d="M737.5 894C585.346 894 462 1018.02 462 1171L1013 1171C1013 1018.02 889.654 894 737.5 894Z" fill="#4C249F"/>
<path d="M952 790C952 723.726 898.274 670 832 670H3V1287H952V790Z" fill="url(#paint1_linear_3635_34225)" fill-opacity="0.51"/>
</g>
<path d="M1441 790H696C629.726 790 576 843.726 576 910V1286H1441V790Z" fill="#6438C1"/>
<path d="M576 910C576 843.726 629.726 790 696 790H1441V1286H576V910Z" fill="url(#paint2_linear_3635_34225)" fill-opacity="0.51"/>
<path d="M576 1171H398C334.487 1171 283 1222.49 283 1286V1286H576V1171Z" fill="#9B6AFF"/>
<path d="M283 1286C283 1222.49 334.487 1171 398 1171H576V1286H283V1286Z" fill="url(#paint3_linear_3635_34225)" fill-opacity="0.51"/>
<path d="M1005 1286L1005 1233C1005 1224.16 997.837 1217 989 1217L778 1217C769.163 1217 762 1209.84 762 1201L762 1171" stroke="url(#paint4_linear_3635_34225)" stroke-width="16"/>
<rect x="836" y="1209" width="63" height="16" fill="url(#paint5_linear_3635_34225)" fill-opacity="0.46"/>
<circle cx="899" cy="1217" r="8" fill="#FFB636"/>
<path d="M1005 791L1005 864.062C1005 872.898 1012.16 880.062 1021 880.062L1231 880.062C1239.84 880.062 1247 887.225 1247 896.062L1247 939" stroke="url(#paint6_linear_3635_34225)" stroke-width="16"/>
<rect x="1115" y="872" width="63" height="16" fill="url(#paint7_linear_3635_34225)" fill-opacity="0.46"/>
<circle cx="1178" cy="880" r="8" fill="#35F0D0"/>
<path d="M576 1024L532 1024C487.817 1024 452 988.183 452 944L452 902C452 835.726 398.274 782 332 782L2 782" stroke="#21064E" stroke-width="40"/>
<rect x="460" y="873" width="50" height="16" transform="rotate(90 460 873)" fill="url(#paint8_linear_3635_34225)" fill-opacity="0.46"/>
<circle cx="452" cy="923" r="8" transform="rotate(90 452 923)" fill="#35F0D0"/>
<rect x="460" y="919" width="28" height="16" transform="rotate(90 460 919)" fill="url(#paint9_linear_3635_34225)" fill-opacity="0.46"/>
<circle cx="452" cy="947" r="8" transform="rotate(90 452 947)" fill="#FFB636"/>
<defs>
<linearGradient id="paint0_linear_3635_34225" x1="1444" y1="931.5" x2="891" y2="931.5" gradientUnits="userSpaceOnUse">
<stop stop-color="#21064E"/>
<stop offset="0.0666667" stop-color="#21064E" stop-opacity="0.991353"/>
<stop offset="0.133333" stop-color="#21064E" stop-opacity="0.96449"/>
<stop offset="0.2" stop-color="#21064E" stop-opacity="0.91834"/>
<stop offset="0.266667" stop-color="#21064E" stop-opacity="0.852589"/>
<stop offset="0.333333" stop-color="#21064E" stop-opacity="0.768225"/>
<stop offset="0.4" stop-color="#21064E" stop-opacity="0.668116"/>
<stop offset="0.466667" stop-color="#21064E" stop-opacity="0.557309"/>
<stop offset="0.533333" stop-color="#21064E" stop-opacity="0.442691"/>
<stop offset="0.6" stop-color="#21064E" stop-opacity="0.331884"/>
<stop offset="0.666667" stop-color="#21064E" stop-opacity="0.231775"/>
<stop offset="0.733333" stop-color="#21064E" stop-opacity="0.147411"/>
<stop offset="0.8" stop-color="#21064E" stop-opacity="0.0816599"/>
<stop offset="0.866667" stop-color="#21064E" stop-opacity="0.03551"/>
<stop offset="0.933333" stop-color="#21064E" stop-opacity="0.01"/>
<stop offset="1" stop-color="#21064E" stop-opacity="0"/>
</linearGradient>
<linearGradient id="paint1_linear_3635_34225" x1="3" y1="978.5" x2="952" y2="978.5" gradientUnits="userSpaceOnUse">
<stop stop-color="#21064E"/>
<stop offset="1" stop-color="#21064E" stop-opacity="0"/>
</linearGradient>
<linearGradient id="paint2_linear_3635_34225" x1="1441" y1="1038" x2="576" y2="1038" gradientUnits="userSpaceOnUse">
<stop stop-color="#21064E"/>
<stop offset="1" stop-color="#21064E" stop-opacity="0"/>
</linearGradient>
<linearGradient id="paint3_linear_3635_34225" x1="576" y1="1228.5" x2="283" y2="1228.5" gradientUnits="userSpaceOnUse">
<stop stop-color="#21064E"/>
<stop offset="1" stop-color="#21064E" stop-opacity="0"/>
</linearGradient>
<linearGradient id="paint4_linear_3635_34225" x1="768.671" y1="1171" x2="1028.09" y2="1286.98" gradientUnits="userSpaceOnUse">
<stop stop-color="#21064E"/>
<stop offset="1" stop-color="#21064E" stop-opacity="0"/>
</linearGradient>
<linearGradient id="paint5_linear_3635_34225" x1="899" y1="1215" x2="836" y2="1215" gradientUnits="userSpaceOnUse">
<stop stop-color="#9B6AFF"/>
<stop offset="0.0666667" stop-color="#9B6AFF" stop-opacity="0.991353"/>
<stop offset="0.133333" stop-color="#9B6AFF" stop-opacity="0.96449"/>
<stop offset="0.2" stop-color="#9B6AFF" stop-opacity="0.91834"/>
<stop offset="0.266667" stop-color="#9B6AFF" stop-opacity="0.852589"/>
<stop offset="0.333333" stop-color="#9B6AFF" stop-opacity="0.768225"/>
<stop offset="0.4" stop-color="#9B6AFF" stop-opacity="0.668116"/>
<stop offset="0.466667" stop-color="#9B6AFF" stop-opacity="0.557309"/>
<stop offset="0.533333" stop-color="#9B6AFF" stop-opacity="0.442691"/>
<stop offset="0.6" stop-color="#9B6AFF" stop-opacity="0.331884"/>
<stop offset="0.666667" stop-color="#9B6AFF" stop-opacity="0.231775"/>
<stop offset="0.733333" stop-color="#9B6AFF" stop-opacity="0.147411"/>
<stop offset="0.8" stop-color="#9B6AFF" stop-opacity="0.0816599"/>
<stop offset="0.866667" stop-color="#9B6AFF" stop-opacity="0.03551"/>
<stop offset="0.933333" stop-color="#9B6AFF" stop-opacity="0.01"/>
<stop offset="1" stop-color="#9B6AFF" stop-opacity="0"/>
</linearGradient>
<linearGradient id="paint6_linear_3635_34225" x1="1240.36" y1="939" x2="963.507" y2="843.224" gradientUnits="userSpaceOnUse">
<stop stop-color="#21064E"/>
<stop offset="1" stop-color="#21064E" stop-opacity="0"/>
</linearGradient>
<linearGradient id="paint7_linear_3635_34225" x1="1178" y1="878" x2="1115" y2="878" gradientUnits="userSpaceOnUse">
<stop stop-color="#9B6AFF"/>
<stop offset="0.0666667" stop-color="#9B6AFF" stop-opacity="0.991353"/>
<stop offset="0.133333" stop-color="#9B6AFF" stop-opacity="0.96449"/>
<stop offset="0.2" stop-color="#9B6AFF" stop-opacity="0.91834"/>
<stop offset="0.266667" stop-color="#9B6AFF" stop-opacity="0.852589"/>
<stop offset="0.333333" stop-color="#9B6AFF" stop-opacity="0.768225"/>
<stop offset="0.4" stop-color="#9B6AFF" stop-opacity="0.668116"/>
<stop offset="0.466667" stop-color="#9B6AFF" stop-opacity="0.557309"/>
<stop offset="0.533333" stop-color="#9B6AFF" stop-opacity="0.442691"/>
<stop offset="0.6" stop-color="#9B6AFF" stop-opacity="0.331884"/>
<stop offset="0.666667" stop-color="#9B6AFF" stop-opacity="0.231775"/>
<stop offset="0.733333" stop-color="#9B6AFF" stop-opacity="0.147411"/>
<stop offset="0.8" stop-color="#9B6AFF" stop-opacity="0.0816599"/>
<stop offset="0.866667" stop-color="#9B6AFF" stop-opacity="0.03551"/>
<stop offset="0.933333" stop-color="#9B6AFF" stop-opacity="0.01"/>
<stop offset="1" stop-color="#9B6AFF" stop-opacity="0"/>
</linearGradient>
<linearGradient id="paint8_linear_3635_34225" x1="510" y1="879" x2="460" y2="879" gradientUnits="userSpaceOnUse">
<stop stop-color="#9B6AFF"/>
<stop offset="0.0666667" stop-color="#9B6AFF" stop-opacity="0.991353"/>
<stop offset="0.133333" stop-color="#9B6AFF" stop-opacity="0.96449"/>
<stop offset="0.2" stop-color="#9B6AFF" stop-opacity="0.91834"/>
<stop offset="0.266667" stop-color="#9B6AFF" stop-opacity="0.852589"/>
<stop offset="0.333333" stop-color="#9B6AFF" stop-opacity="0.768225"/>
<stop offset="0.4" stop-color="#9B6AFF" stop-opacity="0.668116"/>
<stop offset="0.466667" stop-color="#9B6AFF" stop-opacity="0.557309"/>
<stop offset="0.533333" stop-color="#9B6AFF" stop-opacity="0.442691"/>
<stop offset="0.6" stop-color="#9B6AFF" stop-opacity="0.331884"/>
<stop offset="0.666667" stop-color="#9B6AFF" stop-opacity="0.231775"/>
<stop offset="0.733333" stop-color="#9B6AFF" stop-opacity="0.147411"/>
<stop offset="0.8" stop-color="#9B6AFF" stop-opacity="0.0816599"/>
<stop offset="0.866667" stop-color="#9B6AFF" stop-opacity="0.03551"/>
<stop offset="0.933333" stop-color="#9B6AFF" stop-opacity="0.01"/>
<stop offset="1" stop-color="#9B6AFF" stop-opacity="0"/>
</linearGradient>
<linearGradient id="paint9_linear_3635_34225" x1="488" y1="925" x2="460" y2="925" gradientUnits="userSpaceOnUse">
<stop stop-color="#9B6AFF"/>
<stop offset="0.0666667" stop-color="#9B6AFF" stop-opacity="0.991353"/>
<stop offset="0.133333" stop-color="#9B6AFF" stop-opacity="0.96449"/>
<stop offset="0.2" stop-color="#9B6AFF" stop-opacity="0.91834"/>
<stop offset="0.266667" stop-color="#9B6AFF" stop-opacity="0.852589"/>
<stop offset="0.333333" stop-color="#9B6AFF" stop-opacity="0.768225"/>
<stop offset="0.4" stop-color="#9B6AFF" stop-opacity="0.668116"/>
<stop offset="0.466667" stop-color="#9B6AFF" stop-opacity="0.557309"/>
<stop offset="0.533333" stop-color="#9B6AFF" stop-opacity="0.442691"/>
<stop offset="0.6" stop-color="#9B6AFF" stop-opacity="0.331884"/>
<stop offset="0.666667" stop-color="#9B6AFF" stop-opacity="0.231775"/>
<stop offset="0.733333" stop-color="#9B6AFF" stop-opacity="0.147411"/>
<stop offset="0.8" stop-color="#9B6AFF" stop-opacity="0.0816599"/>
<stop offset="0.866667" stop-color="#9B6AFF" stop-opacity="0.03551"/>
<stop offset="0.933333" stop-color="#9B6AFF" stop-opacity="0.01"/>
<stop offset="1" stop-color="#9B6AFF" stop-opacity="0"/>
</linearGradient>
<clipPath id="clip0_3635_34225">
<rect width="949" height="617" fill="white" transform="translate(3 670)"/>
</clipPath>
</defs>
</svg>
