<svg width="576" height="667" viewBox="0 0 576 667" fill="none" xmlns="http://www.w3.org/2000/svg">
<rect width="375" height="667" transform="translate(102)" fill="#2D0C66"/>
<g clip-path="url(#clip0_3306_63333)">
<mask id="mask0_3306_63333" style="mask-type:alpha" maskUnits="userSpaceOnUse" x="102" y="0" width="375" height="667">
<rect x="102" width="375" height="667" fill="#D9D9D9"/>
</mask>
<g mask="url(#mask0_3306_63333)">
<path fill-rule="evenodd" clip-rule="evenodd" d="M102.125 185.311H139.125C144.648 185.311 149.125 189.788 149.125 195.311V230.311H430.125V195.311C430.125 189.788 434.602 185.311 440.125 185.311H477.125V328.311H442.125H430.125H149.125H142.125H102.125V185.311Z" fill="#6538C1"/>
<path fill-rule="evenodd" clip-rule="evenodd" d="M102.125 185.311H139.125C144.648 185.311 149.125 189.788 149.125 195.311V230.311H430.125V195.311C430.125 189.788 434.602 185.311 440.125 185.311H477.125V328.311H442.125H430.125H149.125H142.125H102.125V185.311Z" fill="url(#paint0_linear_3306_63333)" fill-opacity="0.5"/>
<path d="M-143.125 327.436L33.5 327.436C50.0685 327.436 63.5 314.005 63.5 297.436L63.5 281.686C63.5 256.833 83.6472 236.686 108.5 236.686L153.125 236.686" stroke="#21064E" stroke-width="14"/>
<rect width="18.75" height="6" transform="matrix(-1 0 0 1 146.375 233.686)" fill="url(#paint1_linear_3306_63333)" fill-opacity="0.46"/>
<circle cx="3" cy="3" r="3" transform="matrix(-1 0 0 1 130.625 233.686)" fill="#35F0D0"/>
<rect width="10.5" height="6" transform="matrix(-1 0 0 1 129.125 233.686)" fill="url(#paint2_linear_3306_63333)" fill-opacity="0.46"/>
<circle cx="3" cy="3" r="3" transform="matrix(-1 0 0 1 121.625 233.686)" fill="#FFB636"/>
<path d="M149.125 199.311H430.125V229.311C430.125 251.402 412.216 269.311 390.125 269.311H189.125C167.034 269.311 149.125 251.402 149.125 229.311V199.311Z" fill="#4C249F"/>
<path d="M458.289 183.349L458.595 182.694L459.216 183.065L458.969 182.385L459.671 182.209L459.015 181.903L459.387 181.282L458.707 181.529L458.531 180.827L458.225 181.483L457.604 181.111L457.851 181.791L457.149 181.967L457.804 182.274L457.433 182.894L458.113 182.647L458.289 183.349Z" fill="#B18CFF"/>
<path d="M455.194 178.471L455.623 177.554L456.492 178.074L456.147 177.122L457.129 176.876L456.211 176.447L456.732 175.578L455.78 175.923L455.533 174.941L455.104 175.858L454.235 175.338L454.581 176.29L453.599 176.537L454.516 176.966L453.996 177.835L454.948 177.489L455.194 178.471Z" fill="#B18CFF"/>
<path d="M450.587 173.449L451.261 172.007L452.626 172.824L452.083 171.328L453.627 170.941L452.185 170.267L453.002 168.902L451.507 169.444L451.119 167.901L450.445 169.343L449.08 168.525L449.623 170.021L448.079 170.409L449.521 171.083L448.703 172.448L450.199 171.905L450.587 173.449Z" fill="#B18CFF"/>
<path fill-rule="evenodd" clip-rule="evenodd" d="M420.756 144.002C420.751 143.992 420.745 143.982 420.739 143.973C419.118 141.209 415.563 140.282 412.799 141.904C410.035 143.525 409.109 147.08 410.73 149.844C410.736 149.854 410.742 149.863 410.747 149.873L420.756 144.002Z" fill="#FFB636"/>
<circle cx="420.759" cy="141.496" r="1.36148" fill="#36147D"/>
<path fill-rule="evenodd" clip-rule="evenodd" d="M420.055 134.916C420.034 134.94 420.013 134.965 419.992 134.99C413.984 142.125 414.898 152.779 422.032 158.787C429.167 164.795 439.822 163.881 445.83 156.746C445.85 156.722 445.871 156.697 445.892 156.672L420.055 134.916Z" fill="#9B6AFF"/>
<circle cx="421.083" cy="141.82" r="1.68564" fill="#36147D"/>
<rect x="436.171" y="156.97" width="2.91745" height="10.3732" transform="rotate(-36.6045 436.171 156.97)" fill="#9B6AFF"/>
<path fill-rule="evenodd" clip-rule="evenodd" d="M444.913 163.405C444.902 163.389 444.89 163.373 444.878 163.357C443.657 161.733 441.483 161.307 440.022 162.406C438.561 163.504 438.366 165.711 439.587 167.335C439.599 167.351 439.611 167.366 439.623 167.382L444.913 163.405Z" fill="#FFB636"/>
<path fill-rule="evenodd" clip-rule="evenodd" d="M442.434 149.442C442.43 149.457 442.426 149.472 442.422 149.487C441.275 153.766 436.878 156.305 432.599 155.158C428.321 154.012 425.782 149.614 426.928 145.336C426.932 145.321 426.936 145.306 426.94 145.291L442.434 149.442Z" fill="#8050E3"/>
<rect x="168.25" y="195.196" width="33.8746" height="9.56458" rx="4.78229" fill="#FA48E8"/>
<rect x="184.437" y="178.728" width="27.1241" height="3.78599" rx="1.89299" transform="rotate(120 184.437 178.728)" fill="#FA48E8"/>
<path d="M184.582 177.12C184.582 176.157 184.392 175.203 184.021 174.314C183.651 173.424 183.107 172.616 182.422 171.935C181.738 171.254 180.925 170.713 180.03 170.345C179.135 169.976 178.176 169.787 177.208 169.787C176.239 169.787 175.28 169.976 174.386 170.345C173.491 170.713 172.678 171.254 171.993 171.935C171.308 172.616 170.765 173.424 170.394 174.314C170.024 175.203 169.833 176.157 169.833 177.12L177.208 177.12H184.582Z" fill="#FA48E8"/>
<path d="M180.285 182.422C181.017 182.226 181.703 181.888 182.304 181.427C182.905 180.966 183.409 180.391 183.788 179.735C184.166 179.079 184.412 178.355 184.511 177.604C184.61 176.853 184.56 176.09 184.364 175.358C184.168 174.626 183.83 173.941 183.369 173.34C182.907 172.739 182.332 172.234 181.677 171.856C181.021 171.477 180.296 171.231 179.545 171.132C178.794 171.033 178.031 171.083 177.3 171.279L178.793 176.851L180.285 182.422Z" fill="#FA48E8"/>
<circle cx="176.507" cy="171.6" r="2.30718" fill="#F5F0FF"/>
<circle cx="177.249" cy="171.6" r="0.741594" fill="black"/>
<mask id="mask1_3306_63333" style="mask-type:alpha" maskUnits="userSpaceOnUse" x="166" y="172" width="9" height="7">
<path d="M170.616 172.341L174.505 178.521H166.727L170.616 172.341Z" fill="#D9D9D9"/>
</mask>
<g mask="url(#mask1_3306_63333)">
<path d="M184.582 177.12C184.582 176.157 184.392 175.203 184.021 174.314C183.651 173.424 183.107 172.616 182.422 171.935C181.738 171.254 180.925 170.713 180.03 170.345C179.135 169.976 178.176 169.787 177.208 169.787C176.239 169.787 175.28 169.976 174.386 170.345C173.491 170.713 172.678 171.254 171.993 171.935C171.308 172.616 170.765 173.424 170.394 174.314C170.024 175.203 169.833 176.157 169.833 177.12L177.208 177.12H184.582Z" fill="#770F6D"/>
</g>
<path d="M379.625 190.311L381.251 195.153L385.635 192.947L383.551 197.589L388.125 199.311L383.551 201.033L385.635 205.675L381.251 203.468L379.625 208.311L377.999 203.468L373.615 205.675L375.699 201.033L371.125 199.311L375.699 197.589L373.615 192.947L377.999 195.153L379.625 190.311Z" fill="#8050E3"/>
<circle cx="183.135" cy="266.284" r="3.02741" fill="#9B6AFF"/>
<circle cx="189.19" cy="266.284" r="3.02741" fill="#35F0D0"/>
<circle cx="195.244" cy="266.284" r="3.02741" fill="#FFB636"/>
<circle cx="201.299" cy="266.284" r="3.02741" fill="#9B6AFF"/>
<circle cx="207.354" cy="266.284" r="3.02741" fill="#35F0D0"/>
<circle cx="213.409" cy="266.284" r="3.02741" fill="#FFB636"/>
<circle cx="219.464" cy="266.284" r="3.02741" fill="#9B6AFF"/>
<circle cx="225.519" cy="266.284" r="3.02741" fill="#35F0D0"/>
<circle cx="231.574" cy="266.284" r="3.02741" fill="#FFB636"/>
<circle cx="237.628" cy="266.284" r="3.02741" fill="#9B6AFF"/>
<circle cx="243.683" cy="266.284" r="3.02741" fill="#35F0D0"/>
<circle cx="249.738" cy="266.284" r="3.02741" fill="#FFB636"/>
<circle cx="255.793" cy="266.284" r="3.02741" fill="#9B6AFF"/>
<circle cx="261.847" cy="266.284" r="3.02741" fill="#35F0D0"/>
<circle cx="267.902" cy="266.284" r="3.02741" fill="#FFB636"/>
<circle cx="273.957" cy="266.284" r="3.02741" fill="#9B6AFF"/>
<circle cx="280.012" cy="266.284" r="3.02741" fill="#35F0D0"/>
<circle cx="286.066" cy="266.284" r="3.02741" fill="#FFB636"/>
<circle cx="292.121" cy="266.284" r="3.02741" fill="#9B6AFF"/>
<circle cx="298.176" cy="266.284" r="3.02741" fill="#35F0D0"/>
<circle cx="304.231" cy="266.284" r="3.02741" fill="#FFB636"/>
<circle cx="310.286" cy="266.284" r="3.02741" fill="#9B6AFF"/>
<circle cx="316.341" cy="266.284" r="3.02741" fill="#35F0D0"/>
<circle cx="322.395" cy="266.284" r="3.02741" fill="#FFB636"/>
<circle cx="328.451" cy="266.284" r="3.02741" fill="#9B6AFF"/>
<circle cx="334.505" cy="266.284" r="3.02741" fill="#35F0D0"/>
<circle cx="340.56" cy="266.284" r="3.02741" fill="#FFB636"/>
<circle cx="346.615" cy="266.284" r="3.02741" fill="#9B6AFF"/>
<circle cx="352.67" cy="266.284" r="3.02741" fill="#35F0D0"/>
<circle cx="358.724" cy="266.284" r="3.02741" fill="#FFB636"/>
<circle cx="364.779" cy="266.284" r="3.02741" fill="#9B6AFF"/>
<circle cx="370.834" cy="266.284" r="3.02741" fill="#35F0D0"/>
<circle cx="376.889" cy="266.284" r="3.02741" fill="#FFB636"/>
<circle cx="382.944" cy="266.284" r="3.02741" fill="#9B6AFF"/>
<circle cx="388.999" cy="266.284" r="3.02741" fill="#35F0D0"/>
<circle cx="395.053" cy="266.284" r="3.02741" fill="#FFB636"/>
<path d="M149.125 199.311H430.125V229.311C430.125 251.402 412.216 269.311 390.125 269.311H189.125C167.034 269.311 149.125 251.402 149.125 229.311V199.311Z" fill="url(#paint3_linear_3306_63333)" fill-opacity="0.5"/>
<path d="M158.216 486.751C70.8359 486.751 8.38879e-05 415.676 9.15527e-05 328L316.433 328C316.433 415.676 245.597 486.751 158.216 486.751Z" fill="#4C249F"/>
<path d="M158.216 486.751C70.8359 486.751 8.38879e-05 415.676 9.15527e-05 328L316.433 328C316.433 415.676 245.597 486.751 158.216 486.751Z" fill="url(#paint4_linear_3306_63333)" fill-opacity="0.5"/>
<path d="M575.693 550.154H277.207C253.344 550.154 234 530.81 234 506.948V328.36H575.693V550.154Z" fill="#6538C1"/>
<path d="M234.001 506.948C234.001 530.81 253.345 550.154 277.207 550.154H575.694V328H234.001V506.948Z" fill="url(#paint5_linear_3306_63333)" fill-opacity="0.51"/>
<path d="M234 511C234 544.137 260.863 571 294 571H477V328H234V511Z" fill="#4C249F"/>
<path d="M234 511C234 544.137 260.863 571 294 571H477V328H234V511Z" fill="url(#paint6_linear_3306_63333)"/>
<circle cx="401.027" cy="264.027" r="3.02741" fill="#9B6AFF"/>
<circle cx="177.027" cy="264.027" r="3.02741" fill="#FFB636"/>
</g>
</g>
<defs>
<linearGradient id="paint0_linear_3306_63333" x1="477.125" y1="256.811" x2="102.125" y2="256.811" gradientUnits="userSpaceOnUse">
<stop stop-color="#21064E"/>
<stop offset="0.0666667" stop-color="#21064E" stop-opacity="0.991353"/>
<stop offset="0.133333" stop-color="#21064E" stop-opacity="0.96449"/>
<stop offset="0.2" stop-color="#21064E" stop-opacity="0.91834"/>
<stop offset="0.266667" stop-color="#21064E" stop-opacity="0.852589"/>
<stop offset="0.333333" stop-color="#21064E" stop-opacity="0.768225"/>
<stop offset="0.4" stop-color="#21064E" stop-opacity="0.668116"/>
<stop offset="0.466667" stop-color="#21064E" stop-opacity="0.557309"/>
<stop offset="0.533333" stop-color="#21064E" stop-opacity="0.442691"/>
<stop offset="0.6" stop-color="#21064E" stop-opacity="0.331884"/>
<stop offset="0.666667" stop-color="#21064E" stop-opacity="0.231775"/>
<stop offset="0.733333" stop-color="#21064E" stop-opacity="0.147411"/>
<stop offset="0.8" stop-color="#21064E" stop-opacity="0.0816599"/>
<stop offset="0.866667" stop-color="#21064E" stop-opacity="0.03551"/>
<stop offset="0.933333" stop-color="#21064E" stop-opacity="0.01"/>
<stop offset="1" stop-color="#21064E" stop-opacity="0"/>
</linearGradient>
<linearGradient id="paint1_linear_3306_63333" x1="18.75" y1="2.25" x2="-3.20608e-08" y2="2.25" gradientUnits="userSpaceOnUse">
<stop stop-color="#9B6AFF"/>
<stop offset="0.0666667" stop-color="#9B6AFF" stop-opacity="0.991353"/>
<stop offset="0.133333" stop-color="#9B6AFF" stop-opacity="0.96449"/>
<stop offset="0.2" stop-color="#9B6AFF" stop-opacity="0.91834"/>
<stop offset="0.266667" stop-color="#9B6AFF" stop-opacity="0.852589"/>
<stop offset="0.333333" stop-color="#9B6AFF" stop-opacity="0.768225"/>
<stop offset="0.4" stop-color="#9B6AFF" stop-opacity="0.668116"/>
<stop offset="0.466667" stop-color="#9B6AFF" stop-opacity="0.557309"/>
<stop offset="0.533333" stop-color="#9B6AFF" stop-opacity="0.442691"/>
<stop offset="0.6" stop-color="#9B6AFF" stop-opacity="0.331884"/>
<stop offset="0.666667" stop-color="#9B6AFF" stop-opacity="0.231775"/>
<stop offset="0.733333" stop-color="#9B6AFF" stop-opacity="0.147411"/>
<stop offset="0.8" stop-color="#9B6AFF" stop-opacity="0.0816599"/>
<stop offset="0.866667" stop-color="#9B6AFF" stop-opacity="0.03551"/>
<stop offset="0.933333" stop-color="#9B6AFF" stop-opacity="0.01"/>
<stop offset="1" stop-color="#9B6AFF" stop-opacity="0"/>
</linearGradient>
<linearGradient id="paint2_linear_3306_63333" x1="10.5" y1="2.25" x2="-1.7954e-08" y2="2.25" gradientUnits="userSpaceOnUse">
<stop stop-color="#9B6AFF"/>
<stop offset="0.0666667" stop-color="#9B6AFF" stop-opacity="0.991353"/>
<stop offset="0.133333" stop-color="#9B6AFF" stop-opacity="0.96449"/>
<stop offset="0.2" stop-color="#9B6AFF" stop-opacity="0.91834"/>
<stop offset="0.266667" stop-color="#9B6AFF" stop-opacity="0.852589"/>
<stop offset="0.333333" stop-color="#9B6AFF" stop-opacity="0.768225"/>
<stop offset="0.4" stop-color="#9B6AFF" stop-opacity="0.668116"/>
<stop offset="0.466667" stop-color="#9B6AFF" stop-opacity="0.557309"/>
<stop offset="0.533333" stop-color="#9B6AFF" stop-opacity="0.442691"/>
<stop offset="0.6" stop-color="#9B6AFF" stop-opacity="0.331884"/>
<stop offset="0.666667" stop-color="#9B6AFF" stop-opacity="0.231775"/>
<stop offset="0.733333" stop-color="#9B6AFF" stop-opacity="0.147411"/>
<stop offset="0.8" stop-color="#9B6AFF" stop-opacity="0.0816599"/>
<stop offset="0.866667" stop-color="#9B6AFF" stop-opacity="0.03551"/>
<stop offset="0.933333" stop-color="#9B6AFF" stop-opacity="0.01"/>
<stop offset="1" stop-color="#9B6AFF" stop-opacity="0"/>
</linearGradient>
<linearGradient id="paint3_linear_3306_63333" x1="426.125" y1="239.811" x2="153.125" y2="236.811" gradientUnits="userSpaceOnUse">
<stop offset="0.0198198" stop-color="#4C249F"/>
<stop offset="1" stop-color="#4C249F" stop-opacity="0"/>
</linearGradient>
<linearGradient id="paint4_linear_3306_63333" x1="8.44692e-05" y1="407.376" x2="316.433" y2="407.376" gradientUnits="userSpaceOnUse">
<stop stop-color="#21064E"/>
<stop offset="0.0666667" stop-color="#21064E" stop-opacity="0.991353"/>
<stop offset="0.133333" stop-color="#21064E" stop-opacity="0.96449"/>
<stop offset="0.2" stop-color="#21064E" stop-opacity="0.91834"/>
<stop offset="0.266667" stop-color="#21064E" stop-opacity="0.852589"/>
<stop offset="0.333333" stop-color="#21064E" stop-opacity="0.768225"/>
<stop offset="0.4" stop-color="#21064E" stop-opacity="0.668116"/>
<stop offset="0.466667" stop-color="#21064E" stop-opacity="0.557309"/>
<stop offset="0.533333" stop-color="#21064E" stop-opacity="0.442691"/>
<stop offset="0.6" stop-color="#21064E" stop-opacity="0.331884"/>
<stop offset="0.666667" stop-color="#21064E" stop-opacity="0.231775"/>
<stop offset="0.733333" stop-color="#21064E" stop-opacity="0.147411"/>
<stop offset="0.8" stop-color="#21064E" stop-opacity="0.0816599"/>
<stop offset="0.866667" stop-color="#21064E" stop-opacity="0.03551"/>
<stop offset="0.933333" stop-color="#21064E" stop-opacity="0.01"/>
<stop offset="1" stop-color="#21064E" stop-opacity="0"/>
</linearGradient>
<linearGradient id="paint5_linear_3306_63333" x1="575.694" y1="439.077" x2="234.001" y2="439.077" gradientUnits="userSpaceOnUse">
<stop stop-color="#21064E"/>
<stop offset="1" stop-color="#21064E" stop-opacity="0"/>
</linearGradient>
<linearGradient id="paint6_linear_3306_63333" x1="477" y1="449.5" x2="222.776" y2="448.37" gradientUnits="userSpaceOnUse">
<stop offset="0.255208" stop-color="#21064E" stop-opacity="0"/>
<stop offset="1" stop-color="#21064E"/>
</linearGradient>
<clipPath id="clip0_3306_63333">
<rect width="575.693" height="446" fill="white" transform="translate(0 125)"/>
</clipPath>
</defs>
</svg>
